<svg width="35" height="39" viewBox="0 0 35 39" fill="none" xmlns="http://www.w3.org/2000/svg">
<g clip-path="url(#clip0_42070_8446)">
<path d="M15.4715 12.629C14.2826 14.782 12.4684 16.507 10.14 17.4C9.2309 17.7507 8.03379 17.7303 8.15309 16.4866C8.22713 15.7118 9.06634 15.039 9.67518 14.676C10.7119 14.0562 12.0406 13.8523 13.1554 13.3711C13.8795 13.0571 13.2542 12.001 12.5343 12.315C10.5432 13.1754 8.36289 13.3793 7.2316 15.4671C6.62688 16.5844 6.42941 18.1381 7.79107 18.7742C9.26792 19.4634 11.3001 18.3501 12.526 17.5672C14.2291 16.4825 15.5661 15.0022 16.5328 13.2447C16.9195 12.5556 15.8541 11.9357 15.4715 12.629Z" fill="#46A358"/>
<path d="M12.8961 12.1193C11.3987 12.2824 9.91362 12.2905 8.42854 12.0133C7.88553 11.9113 7.34662 11.7727 6.82006 11.6055C6.37577 11.475 5.94794 11.316 5.52422 11.1243C4.89481 10.3332 4.95652 9.89281 5.71757 9.79494C7.94723 8.09042 11.4316 9.88057 13.6201 10.7084C14.3647 10.9897 14.6856 9.80717 13.9492 9.52988C12.0446 8.80811 9.95475 7.72342 7.86084 7.95586C6.65962 8.08634 3.89105 8.60422 3.57018 10.1008C2.8297 13.5669 11.1066 13.5424 12.8961 13.3467C13.6777 13.257 13.6859 12.0336 12.8961 12.1193Z" fill="#46A358"/>
<path d="M14.353 9.5501C12.4812 8.07802 10.8192 5.7863 10.9097 3.30292C10.9509 2.19784 11.6584 1.7289 12.6828 2.22639C13.2463 2.4996 13.6372 3.1969 13.9457 3.72294C14.6615 4.95443 14.9618 6.36127 15.2251 7.74364C15.3732 8.51434 16.5621 8.18812 16.414 7.41742C16.019 5.35405 15.4554 3.20506 13.9169 1.66365C13.0078 0.754304 11.4939 -0.28961 10.4243 0.933727C7.92312 3.79226 11.1977 8.61629 13.4808 10.4146C14.0979 10.8999 14.9782 10.0394 14.353 9.5501Z" fill="#46A358"/>
<path d="M16.3853 7.75612C16.6568 5.79062 17.5207 2.05129 19.7998 1.41515C21.9184 0.827951 21.7086 4.20436 21.1162 5.32168C20.5197 6.44715 19.3473 7.5033 18.4957 8.44527C17.9691 9.02839 18.8371 9.89696 19.3678 9.30976C20.5896 7.95593 22.4161 6.40229 22.6794 4.49796C22.8851 3.0218 22.774 0.791251 21.1326 0.138804C19.6352 -0.456553 18.1543 0.897274 17.3027 1.96158C16.048 3.52745 15.4639 5.46848 15.1923 7.42174C15.0854 8.2006 16.2743 8.53498 16.3853 7.75612Z" fill="#46A358"/>
<path d="M19.4552 9.46495C20.891 8.27424 23.5567 7.44645 25.3092 8.51891C27.58 9.91351 24.363 10.7495 23.3016 10.8188C22.1662 10.8963 21.0308 10.8269 19.9037 10.6964C19.1179 10.6067 19.122 11.8301 19.9037 11.9198C21.7466 12.1318 24.2355 12.405 25.9509 11.4998C27.0164 10.937 27.7815 9.57506 27.1274 8.4292C26.3952 7.14469 24.3342 6.83478 22.9972 6.87148C21.3394 6.92041 19.8461 7.55655 18.5872 8.60046C17.9743 9.10611 18.8505 9.9706 19.4552 9.46495Z" fill="#46A358"/>
<path d="M19.5853 11.8789C20.8565 12.3437 22.1194 13.0451 22.8434 14.2277C23.7485 15.712 23.769 18.4441 21.1362 17.9344C18.8202 17.4858 17.1459 15.0473 16.6728 12.9309C16.5 12.1643 15.3111 12.4864 15.4839 13.2571C15.9035 15.1411 16.9525 16.8048 18.524 17.9588C19.7581 18.8682 21.9261 19.9529 23.3782 18.9212C24.8715 17.861 24.8715 15.6671 24.1969 14.1583C23.3988 12.3804 21.6998 11.3487 19.9227 10.6963C19.1657 10.4272 18.8449 11.6097 19.5853 11.8789Z" fill="#46A358"/>
<path d="M7.10481 15.247C3.50114 17.4001 0.84364 19.7978 0.214233 24.1121C-0.472768 28.7975 0.62561 33.6949 1.62937 38.258C1.79804 39.0287 2.98692 38.7024 2.81825 37.9317C1.92968 33.8947 1.02053 29.7109 1.29616 25.5556C1.59646 21.0252 3.966 18.55 7.72187 16.3072C8.40476 15.8994 7.78769 14.8392 7.10481 15.247Z" fill="#46A358"/>
<path d="M23.008 13.8647C28.0474 14.2562 31.614 18.2687 32.9674 22.8644C34.4402 27.8679 33.6174 33.1364 32.8152 38.1765C32.6918 38.9472 33.8807 39.2775 34.0041 38.5027C34.9421 32.5899 35.8841 26.3101 33.4611 20.6094C31.6263 16.291 27.817 13.0165 23.008 12.6414C22.214 12.5802 22.2181 13.8035 23.008 13.8647Z" fill="#46A358"/>
<path d="M8.32677 17.7833C2.30009 22.1302 4.25413 31.9577 5.47181 38.0662C5.62402 38.8369 6.81702 38.5107 6.66069 37.74C6.02306 34.543 5.43067 31.3093 5.49238 28.039C5.55409 24.8583 6.15881 20.8498 8.94795 18.8395C9.58559 18.3787 8.97263 17.3184 8.32677 17.7833Z" fill="#46A358"/>
<path d="M15.0931 13.8283C12.8511 17.2495 11.4031 21.0745 10.8765 25.1278C10.6009 27.2524 10.5803 29.4054 10.8354 31.534C11.111 33.8584 11.8638 36.093 12.1435 38.4174C12.234 39.1881 13.4723 39.2003 13.3777 38.4174C12.8922 34.36 11.6417 30.6247 11.9708 26.4735C12.3122 22.1633 13.7932 18.061 16.1627 14.444C16.5905 13.7834 15.5251 13.1718 15.0931 13.8283Z" fill="#46A358"/>
<path d="M18.1098 17.6081C19.9487 20.6175 20.3354 24.0225 20.6562 27.46C20.9894 31.0363 21.261 34.6166 21.4913 38.2009C21.5407 38.9839 22.7748 38.988 22.7255 38.2009C22.4663 34.1435 22.1742 30.0861 21.7546 26.041C21.4255 22.8644 20.8701 19.753 19.1753 16.9883C18.7639 16.3195 17.6943 16.9312 18.1098 17.6081Z" fill="#46A358"/>
<path d="M23.7249 18.1789C28.32 23.9082 28.4722 31.2237 28.3077 38.2049C28.2912 38.9919 29.5254 38.9919 29.5418 38.2049C29.7146 30.8404 29.4184 23.3291 24.5971 17.3144C24.1034 16.6986 23.2354 17.5713 23.7249 18.1789Z" fill="#46A358"/>
<path d="M15.9542 19.6717C15.8842 19.9449 15.8184 20.214 15.7485 20.4873C15.6539 20.8706 16.2462 21.0337 16.345 20.6504C16.4149 20.3772 16.4807 20.108 16.5507 19.8348C16.6453 19.4556 16.0529 19.2925 15.9542 19.6717Z" fill="#46A358"/>
<path d="M17.2871 21.7957C17.2871 22.1015 17.2871 22.4074 17.2871 22.7132C17.2871 23.1087 17.9042 23.1087 17.9042 22.7132C17.9042 22.4074 17.9042 22.1015 17.9042 21.7957C17.9042 21.4001 17.2871 21.4001 17.2871 21.7957Z" fill="#46A358"/>
<path d="M14.3069 23.7331C14.274 24.1735 14.237 24.6179 14.2041 25.0583C14.1753 25.4498 14.7924 25.4498 14.8212 25.0583C14.8541 24.6179 14.8911 24.1735 14.924 23.7331C14.9528 23.3416 14.3357 23.3416 14.3069 23.7331Z" fill="#46A358"/>
<path d="M18.3145 25.8738C18.3145 26.2816 18.3145 26.6894 18.3145 27.0971C18.3145 27.4927 18.9315 27.4927 18.9315 27.0971C18.9315 26.6894 18.9315 26.2816 18.9315 25.8738C18.9315 25.4783 18.3145 25.4783 18.3145 25.8738Z" fill="#46A358"/>
<path d="M15.9492 28.1165C15.9492 28.5569 15.9492 29.0014 15.9492 29.4418C15.9492 29.8373 16.5663 29.8373 16.5663 29.4418C16.5663 29.0014 16.5663 28.5569 16.5663 28.1165C16.5663 27.7209 15.9492 27.7209 15.9492 28.1165Z" fill="#46A358"/>
<path d="M14.6133 32.6023C14.6133 33.214 14.6133 33.8257 14.6133 34.4373C14.6133 34.8329 15.2303 34.8329 15.2303 34.4373C15.2303 33.8257 15.2303 33.214 15.2303 32.6023C15.2303 32.2068 14.6133 32.2068 14.6133 32.6023Z" fill="#46A358"/>
<path d="M12.7811 28.6014C12.851 29.0092 12.9251 29.417 12.995 29.8247C13.0608 30.2121 13.6573 30.049 13.5915 29.6616C13.5216 29.2539 13.4475 28.8461 13.3776 28.4383C13.3076 28.055 12.7111 28.2181 12.7811 28.6014Z" fill="#46A358"/>
<path d="M17.4996 34.6408C17.5325 35.0486 17.5696 35.4564 17.6025 35.8642C17.6354 36.2556 18.2525 36.2556 18.2196 35.8642C18.1866 35.4564 18.1496 35.0486 18.1167 34.6408C18.0838 34.2494 17.4626 34.2453 17.4996 34.6408Z" fill="#46A358"/>
<path d="M19.347 30.0534C19.3799 30.4612 19.4169 30.869 19.4498 31.2768C19.4827 31.6642 20.0998 31.6682 20.0669 31.2768C20.034 30.869 19.9969 30.4612 19.964 30.0534C19.9311 29.662 19.3141 29.6579 19.347 30.0534Z" fill="#46A358"/>
<path d="M26.4306 16.4011C26.9078 16.8129 27.385 17.2248 27.8622 17.6326C28.1625 17.8895 28.5986 17.4572 28.2982 17.2003C27.821 16.7885 27.3439 16.3766 26.8667 15.9688C26.5705 15.7119 26.1303 16.1401 26.4306 16.4011Z" fill="#46A358"/>
<path d="M26.6901 19.806C26.9575 20.2831 27.229 20.7643 27.4964 21.2414C27.6898 21.5839 28.2246 21.2781 28.0312 20.9315C27.7638 20.4544 27.4923 19.9732 27.2249 19.4961C27.0275 19.1536 26.4968 19.4635 26.6901 19.806Z" fill="#46A358"/>
<path d="M29.1636 20.0057C29.4681 20.4176 29.7725 20.8294 30.0769 21.2372C30.3073 21.5512 30.8462 21.2453 30.6117 20.9273C30.3073 20.5154 30.0028 20.1036 29.6984 19.6958C29.4639 19.3859 28.9291 19.6876 29.1636 20.0057Z" fill="#46A358"/>
<path d="M30.6856 25.3395C30.7884 26.0531 30.8954 26.7667 30.9982 27.4803C31.0558 27.8677 31.6482 27.7046 31.5947 27.3172C31.4919 26.6036 31.3849 25.89 31.2821 25.1764C31.2204 24.789 30.628 24.9562 30.6856 25.3395Z" fill="#46A358"/>
<path d="M28.6123 23.5088C28.7152 23.8473 28.818 24.1898 28.9209 24.5283C29.0361 24.9034 29.6284 24.7444 29.5174 24.3652C29.4145 24.0267 29.3117 23.6842 29.2088 23.3457C29.0937 22.9706 28.4972 23.1296 28.6123 23.5088Z" fill="#46A358"/>
<path d="M31.8816 31.1749C31.9268 31.6601 31.9186 32.1454 31.8404 32.6266C31.7787 33.0099 32.3711 33.1771 32.4369 32.7897C32.5233 32.2514 32.5521 31.7172 32.5028 31.1749C32.4616 30.7875 31.8445 30.7834 31.8816 31.1749Z" fill="#46A358"/>
<path d="M30.4512 33.1121C30.4512 33.4872 30.4512 33.8583 30.4512 34.2335C30.4512 34.629 31.0682 34.629 31.0682 34.2335C31.0682 33.8583 31.0682 33.4872 31.0682 33.1121C31.0682 32.7165 30.4512 32.7165 30.4512 33.1121Z" fill="#46A358"/>
<path d="M31.0879 22.8931C31.2565 23.3008 31.4293 23.7086 31.598 24.1164C31.6638 24.2714 31.8037 24.3774 31.9764 24.3284C32.1204 24.2917 32.2562 24.1042 32.1904 23.9533C32.0217 23.5455 31.8489 23.1377 31.6803 22.7299C31.6144 22.575 31.4746 22.469 31.3018 22.5179C31.1578 22.5546 31.0262 22.7422 31.0879 22.8931Z" fill="#46A358"/>
<path d="M29.9355 29.9514C29.9355 30.188 29.9355 30.4285 29.9355 30.6651C29.9355 31.0606 30.5526 31.0606 30.5526 30.6651C30.5526 30.4285 30.5526 30.188 30.5526 29.9514C30.5526 29.5559 29.9355 29.5559 29.9355 29.9514Z" fill="#46A358"/>
<path d="M31.1699 36.7819C31.1534 37.0715 31.0835 37.3488 30.9765 37.6179C30.9148 37.7728 31.0465 37.9523 31.1905 37.993C31.3673 38.042 31.5072 37.9319 31.5689 37.781C31.7006 37.4589 31.7664 37.1286 31.787 36.7819C31.8116 36.3864 31.1946 36.3905 31.1699 36.7819Z" fill="#46A358"/>
<path d="M5.28975 18.8843C5.07995 19.1861 4.87015 19.4879 4.65623 19.7896C4.42997 20.1158 4.96476 20.4217 5.19102 20.0995C5.40082 19.7978 5.61062 19.496 5.82454 19.1943C6.04668 18.868 5.51189 18.5622 5.28975 18.8843Z" fill="#46A358"/>
<path d="M3.53043 23.3455C3.45227 23.7166 3.37822 24.0877 3.30006 24.4628C3.22189 24.8462 3.81428 25.0133 3.89655 24.626C3.97471 24.2549 4.04876 23.8838 4.12692 23.5086C4.20509 23.1253 3.60859 22.9622 3.53043 23.3455Z" fill="#46A358"/>
<path d="M3.33295 21.123C3.00796 21.5512 2.76525 22.0242 2.6007 22.5339C2.47728 22.9091 3.07378 23.0681 3.19719 22.6971C3.3494 22.2363 3.57566 21.8203 3.86774 21.4329C4.10634 21.1149 3.56743 20.8131 3.33295 21.123Z" fill="#46A358"/>
<path d="M2.07783 25.1803C2.00378 25.69 1.92562 26.1957 1.85157 26.7054C1.79398 27.0887 2.39047 27.2559 2.44807 26.8685C2.52211 26.3588 2.60027 25.8531 2.67432 25.3434C2.73192 24.956 2.13542 24.7888 2.07783 25.1803Z" fill="#46A358"/>
<path d="M2.6954 28.1163C2.64192 28.626 2.67483 29.1276 2.77356 29.6292C2.84761 30.0165 3.4441 29.8534 3.37006 29.466C3.28367 29.0175 3.26721 28.5689 3.31658 28.1163C3.34949 27.7248 2.73242 27.7289 2.6954 28.1163Z" fill="#46A358"/>
<path d="M3.20031 31.9904C3.23322 32.2962 3.27024 32.6021 3.30315 32.9079C3.31961 33.071 3.43068 33.2137 3.61169 33.2137C3.7639 33.2137 3.94079 33.0751 3.92022 32.9079C3.88731 32.6021 3.85029 32.2962 3.81738 31.9904C3.80092 31.8273 3.68985 31.6846 3.50884 31.6846C3.35663 31.6846 3.18385 31.8232 3.20031 31.9904Z" fill="#46A358"/>
<path d="M2.20082 34.2906C2.43942 34.678 2.61219 35.0857 2.71915 35.5302C2.81377 35.9135 3.40615 35.7504 3.31565 35.3671C3.19635 34.8778 2.99889 34.4129 2.73561 33.9807C2.5258 33.6463 1.99513 33.9562 2.20082 34.2906Z" fill="#46A358"/>
<path d="M3.51756 36.8635C3.58749 37.0348 3.65331 37.2019 3.72325 37.3732C3.78495 37.5241 3.92893 37.6342 4.10171 37.5853C4.24981 37.5445 4.38145 37.3651 4.31563 37.2101C4.24569 37.0388 4.17987 36.8716 4.10994 36.7004C4.04823 36.5495 3.90425 36.4394 3.73147 36.4883C3.58749 36.525 3.45585 36.7085 3.51756 36.8635Z" fill="#46A358"/>
</g>
<defs>
<clipPath id="clip0_42070_8446">
<rect width="35" height="39" fill="white"/>
</clipPath>
</defs>
</svg>
