<svg width="44" height="49" viewBox="0 0 44 49" fill="none" xmlns="http://www.w3.org/2000/svg">
<g clip-path="url(#clip0_42070_8531)">
<path d="M20.2991 44.0268C20.319 44.511 20.458 44.9691 20.7161 45.3813C20.9379 45.7412 21.5038 45.3977 21.2821 45.041C21.0868 44.7237 20.9776 44.3867 20.9643 44.017C20.9445 43.595 20.2826 43.608 20.2991 44.0268Z" fill="#46A358"/>
<path d="M28.8084 43.9843C28.7753 44.1675 28.7389 44.3474 28.7058 44.5307C28.6727 44.7041 28.7654 44.884 28.9441 44.9298C29.1096 44.9723 29.3148 44.8676 29.3479 44.6942C29.381 44.511 29.4174 44.3311 29.4505 44.1479C29.4836 43.9745 29.3909 43.7945 29.2122 43.7487C29.0467 43.7062 28.8415 43.8109 28.8084 43.9843Z" fill="#46A358"/>
<path d="M33.3386 44.6349C33.7655 44.6251 33.7523 43.9708 33.3254 43.9806C32.8984 43.9904 32.9117 44.6447 33.3386 44.6349Z" fill="#46A358"/>
<path d="M8.48119 45.7936C8.90812 45.7838 8.89488 45.1295 8.46795 45.1393C8.04102 45.1491 8.05426 45.8034 8.48119 45.7936Z" fill="#46A358"/>
<path d="M20.5871 4.38694C18.0322 11.8366 16.6389 19.6395 16.4866 27.5079C16.4105 31.4634 16.6455 35.4221 17.1916 39.3416C17.4431 41.1476 17.7608 42.947 18.1447 44.7301C18.4459 46.1238 18.6014 47.7171 19.6472 48.7804C20.094 49.2352 20.7791 48.5252 20.3356 48.0737C19.207 46.9254 19.0912 44.4978 18.8 42.9961C18.4326 41.0985 18.1414 39.1846 17.9263 37.2608C17.5192 33.6227 17.3835 29.9584 17.5126 26.3007C17.774 18.9198 19.1541 11.6206 21.5502 4.62905C21.7554 4.03033 20.789 3.79149 20.5871 4.38694Z" fill="#46A358"/>
<path d="M24.4389 4.52147C25.7759 11.9646 25.809 19.5712 26.0771 27.1059C26.2029 30.6459 26.418 34.1956 26.3452 37.7389C26.2691 41.4162 25.5443 44.8744 24.568 48.4078C24.3992 49.0196 25.3623 49.2585 25.531 48.6499C26.4478 45.3423 27.1759 42.0771 27.3149 38.6353C27.4704 34.7911 27.209 30.9272 27.0733 27.0895C26.8019 19.4633 26.7456 11.7781 25.392 4.24338C25.2795 3.62176 24.3264 3.90313 24.4389 4.52147Z" fill="#46A358"/>
<path d="M31.6274 17.3104C32.0808 27.4951 32.4911 37.8042 29.9759 47.7796C29.8204 48.3947 30.7834 48.6335 30.939 48.0217C33.4741 37.9613 33.0802 27.5606 32.6202 17.2908C32.5904 16.6593 31.5976 16.6757 31.6274 17.3104Z" fill="#46A358"/>
<path d="M28.8216 17.4608C27.4151 19.0868 26.4752 20.9778 26.0615 23.0815C25.9391 23.6999 26.9021 23.9453 27.0246 23.3236C27.4052 21.3803 28.2359 19.6463 29.5365 18.1413C29.9502 17.6604 29.2386 16.9798 28.8216 17.4608Z" fill="#46A358"/>
<path d="M38.6052 23.7159C38.582 31.0903 37.5825 38.396 35.6233 45.5119C35.4545 46.1237 36.4176 46.3625 36.5863 45.754C38.5654 38.5563 39.5748 31.1557 39.598 23.6963C39.598 23.0649 38.6052 23.0845 38.6052 23.7159Z" fill="#46A358"/>
<path d="M36.7183 21.5209C34.1501 24.4621 32.8892 28.0839 31.9824 31.8103C31.8335 32.4254 32.7965 32.6675 32.9455 32.0524C33.8126 28.5027 34.9841 25.0118 37.4365 22.2014C37.8502 21.7237 37.1353 21.04 36.7183 21.5209Z" fill="#46A358"/>
<path d="M12.7538 10.4166C14.521 14.5324 15.8051 18.7986 16.5994 23.1991C16.7119 23.8207 17.6618 23.536 17.5526 22.9177C16.7583 18.5173 15.4709 14.251 13.7069 10.1352C13.4587 9.56268 12.5056 9.83423 12.7538 10.4166Z" fill="#46A358"/>
<path d="M10.9137 10.7733C10.3941 17.0189 9.8844 23.3431 10.9368 29.5658C12.0389 36.0569 14.7461 42.3908 16.8278 48.6234C17.0263 49.2221 17.9795 48.944 17.7809 48.342C15.7654 42.2992 13.1608 36.155 11.9959 29.8865C10.8243 23.5754 11.377 17.1007 11.9065 10.7537C11.9595 10.1255 10.9666 10.1484 10.9137 10.7733Z" fill="#46A358"/>
<path d="M4.5969 25.8625C7.90972 28.9117 10.5937 32.4779 12.6059 36.4857C12.8905 37.0517 13.7345 36.5348 13.4532 35.972C11.4046 31.8922 8.65767 28.2574 5.28528 25.1526C4.81864 24.724 4.13026 25.4307 4.5969 25.8625Z" fill="#46A358"/>
<path d="M2.32282 27.1219C4.88769 34.6992 8.33952 41.9361 12.6253 48.7085C12.9629 49.2451 13.8135 48.7347 13.4726 48.1948C9.22978 41.4912 5.81436 34.3393 3.27596 26.8406C3.07408 26.2451 2.12094 26.52 2.32282 27.1219Z" fill="#46A358"/>
<path d="M8.06773 46.7619C6.60492 44.1773 4.46036 42.0278 1.79289 40.6602C1.25013 40.3821 0.730533 40.4541 1.78296 40.3494C2.16686 40.3102 2.564 40.2938 2.94791 40.3004C4.1989 40.3134 5.33076 40.5359 6.40635 41.2066C7.65735 41.9853 8.74949 43.1042 9.8681 44.0563C10.3513 44.4685 11.0397 43.7618 10.5565 43.3496C9.14001 42.139 7.73678 40.6275 5.99928 39.875C5.02959 39.453 3.98048 39.3287 2.92805 39.3254C2.25953 39.3221 0.869533 39.1978 0.310225 39.7605C-0.781915 40.8533 1.3097 41.4978 1.96167 41.8806C4.1989 43.1827 5.95957 45.0541 7.22049 47.2854C7.53159 47.8285 8.37882 47.3148 8.06773 46.7619Z" fill="#46A358"/>
<path d="M38.2809 38.7918C39.2506 36.6554 41.5044 35.9847 43.6489 35.5397C43.9633 35.4743 44.0891 35.0621 43.9302 34.8134C42.7653 32.9944 40.6439 32.8079 38.6549 32.9878C38.0228 33.0434 38.036 34.0249 38.6747 33.9693C40.2798 33.8254 42.1166 33.8156 43.083 35.3271C43.1757 35.085 43.2716 34.8429 43.3643 34.6008C40.9748 35.0948 38.4828 35.9487 37.4138 38.3141C37.1523 38.8867 38.0194 39.3676 38.2809 38.7918Z" fill="#46A358"/>
<path d="M4.43128 24.9135C3.99442 25.4827 3.50461 26.1927 2.77983 26.4217C2.06498 26.6474 1.30048 26.3235 1.35674 25.4696C1.39976 24.8022 1.97893 24.3147 2.54155 24.0366C3.19683 23.7127 4.9939 23.559 4.51733 24.8022C4.29228 25.3944 5.25535 25.6267 5.4804 25.0443C5.94042 23.8436 4.83504 22.7934 3.66347 22.7705C2.43233 22.7476 0.999311 23.5557 0.535979 24.7106C0.102432 25.7804 0.555836 27.1186 1.7605 27.4228C3.23323 27.7925 4.34854 26.6376 5.14944 25.5972C5.53004 25.0934 4.81849 24.4096 4.43128 24.9135Z" fill="#46A358"/>
<path d="M12.9954 9.68071C12.3765 9.79522 11.4796 10.1944 10.8607 9.8672C10.2418 9.53676 10.3544 8.71557 10.7118 8.24117C11.0858 7.74715 11.6749 7.5672 12.2706 7.73079C12.7538 7.86493 14.2596 9.11471 13.2105 9.54657C12.628 9.78541 12.9027 10.7309 13.4951 10.4888C14.7362 9.97844 14.6931 8.55852 13.8955 7.64573C13.0913 6.72311 11.6517 6.37304 10.5761 7.04374C9.6362 7.63264 9.11329 8.91514 9.62296 9.94245C10.3444 11.4016 12.0323 10.852 13.28 10.623C13.9055 10.5052 13.6175 9.56293 12.9954 9.68071Z" fill="#46A358"/>
<path d="M24.7907 3.69345C23.9303 3.91266 22.9275 4.17112 22.0405 3.95846C20.7928 3.66401 20.7465 2.25064 21.6235 1.51778C22.3251 0.932153 23.4007 0.866719 24.2513 1.12191C24.7874 1.28222 25.4162 1.62902 25.5618 2.21138C25.7008 2.75775 25.4328 3.29758 24.8768 3.43172C24.2579 3.58222 24.5392 4.52446 25.1614 4.37396C26.6408 4.01408 26.9651 2.19175 26.055 1.11864C25.029 -0.0886126 22.9705 -0.294729 21.5904 0.372695C20.2931 1.00086 19.5021 2.68905 20.3659 3.97809C21.3654 5.47325 23.6192 5.00213 25.072 4.62915C25.6909 4.47539 25.4096 3.53314 24.7907 3.69345Z" fill="#46A358"/>
<path d="M31.8697 13.3414C30.4433 13.0895 28.8812 13.4984 28.2292 14.8954C27.6997 16.0274 28.1994 17.4964 29.4306 17.9217C30.6716 18.3503 32.5548 17.8203 33.2431 16.6818C33.9017 15.5858 33.4252 14.1953 32.386 13.541C31.8465 13.2007 31.3666 14.0612 31.9028 14.3981C32.5713 14.8169 32.7897 15.769 32.2437 16.3808C31.7572 16.9272 30.718 17.1594 30.0131 17.0351C29.1062 16.8748 28.7554 15.9358 29.2088 15.1604C29.7053 14.3131 30.7279 14.1364 31.6281 14.2934C32.2536 14.4047 32.4985 13.4526 31.8697 13.3414Z" fill="#46A358"/>
<path d="M39.5636 18.766C38.3093 18.6842 36.5718 18.8608 36.2938 20.3789C36.0655 21.6221 37.4952 23.2645 38.5906 23.7062C41.7181 24.9658 42.3866 18.6842 39.6894 18.851C39.0539 18.8903 39.0705 19.8718 39.7092 19.8325C40.5863 19.7769 40.3711 21.8282 40.1726 22.2339C39.7059 23.1991 38.8124 22.8457 38.2233 22.2307C37.7699 21.7563 36.9557 20.9154 37.4257 20.2349C37.8791 19.5806 38.8918 19.7049 39.5835 19.7475C40.2222 19.79 40.1957 18.8085 39.5636 18.766Z" fill="#46A358"/>
<path d="M21.6369 6.17667C21.5376 6.50711 21.435 6.83755 21.3358 7.16799C21.2133 7.57368 21.8554 7.73072 21.9778 7.3283C22.0771 6.99786 22.1797 6.66742 22.279 6.33698C22.4014 5.9313 21.7594 5.77425 21.6369 6.17667Z" fill="#46A358"/>
<path d="M23.0508 6.23233C23.0541 6.45154 23.0608 6.66747 23.0641 6.88667C23.074 7.30872 23.7359 7.29563 23.726 6.87358C23.7227 6.65438 23.716 6.43845 23.7127 6.21925C23.7061 5.7972 23.0442 5.81029 23.0508 6.23233Z" fill="#46A358"/>
<path d="M22.5803 10.1681C23.0072 10.1583 22.994 9.50397 22.567 9.51378C22.1434 9.52032 22.1567 10.1747 22.5803 10.1681Z" fill="#46A358"/>
<path d="M20.6043 10.5344C20.5745 10.8976 20.5447 11.264 20.5182 11.6272C20.505 11.8039 20.6903 11.9511 20.8558 11.9478C21.0511 11.9445 21.1669 11.7908 21.1801 11.6141C21.2099 11.2509 21.2397 10.8845 21.2662 10.5214C21.2794 10.3447 21.0941 10.1975 20.9286 10.2007C20.7334 10.204 20.6175 10.3578 20.6043 10.5344Z" fill="#46A358"/>
<path d="M22.17 11.5946C22.18 11.9938 22.1866 12.3929 22.1965 12.7953C22.2064 13.2174 22.8683 13.2043 22.8584 12.7823C22.8485 12.3831 22.8419 11.984 22.8319 11.5816C22.822 11.1595 22.1601 11.1726 22.17 11.5946Z" fill="#46A358"/>
<path d="M23.3404 9.2781C23.3835 9.60527 23.4265 9.93244 23.4695 10.2563C23.4927 10.433 23.6151 10.5802 23.8071 10.577C23.9692 10.5737 24.1546 10.4199 24.1314 10.2432C24.0884 9.91608 24.0454 9.58891 24.0023 9.26501C23.9792 9.08834 23.8567 8.94112 23.6648 8.94439C23.4993 8.94766 23.314 9.10143 23.3404 9.2781Z" fill="#46A358"/>
<path d="M23.4376 14.1855C23.4409 14.3687 23.4442 14.5486 23.4475 14.7318C23.4575 15.1539 24.1194 15.1408 24.1094 14.7187C24.1061 14.5355 24.1028 14.3556 24.0995 14.1724C24.0896 13.7503 23.4277 13.7634 23.4376 14.1855Z" fill="#46A358"/>
<path d="M22.004 8.86926C21.9709 9.19316 22.0437 9.49743 22.1794 9.79188C22.2522 9.95219 22.4971 9.98491 22.6361 9.89984C22.8049 9.79842 22.8182 9.61194 22.7454 9.44835C22.6593 9.26187 22.6461 9.05575 22.6659 8.85291C22.6825 8.67623 22.4905 8.52901 22.3284 8.53228C22.1331 8.53882 22.0206 8.69259 22.004 8.86926Z" fill="#46A358"/>
<path d="M19.6931 14.0646C19.6269 14.431 19.5607 14.7942 19.4945 15.1606C19.4184 15.5728 20.0605 15.7364 20.1366 15.3209C20.2028 14.9545 20.269 14.5913 20.3352 14.2249C20.408 13.8127 19.7692 13.6491 19.6931 14.0646Z" fill="#46A358"/>
<path d="M21.5178 16.3219C21.488 16.5771 21.4549 16.8323 21.4251 17.0875C21.4053 17.2641 21.4748 17.4375 21.6634 17.4866C21.819 17.5259 22.044 17.4277 22.0672 17.251C22.097 16.9958 22.1301 16.7407 22.1599 16.4855C22.1797 16.3088 22.1102 16.1354 21.9216 16.0863C21.766 16.0438 21.541 16.1452 21.5178 16.3219Z" fill="#46A358"/>
<path d="M20.9359 20.9777C20.9888 21.2558 20.9557 21.5273 20.8664 21.7923C20.7307 22.1915 21.3727 22.3518 21.5084 21.9526C21.6375 21.5731 21.6474 21.1838 21.5713 20.7912C21.5382 20.6178 21.3198 20.5229 21.1609 20.572C20.9723 20.6276 20.8995 20.8043 20.9359 20.9777Z" fill="#46A358"/>
<path d="M18.9123 18.3374C18.8826 18.5926 18.8495 18.8478 18.8197 19.103C18.7998 19.2797 18.8693 19.4531 19.058 19.5021C19.2135 19.5414 19.4386 19.4432 19.4617 19.2666C19.4915 19.0114 19.5246 18.7562 19.5544 18.501C19.5742 18.3243 19.5047 18.1509 19.3161 18.1019C19.1572 18.0626 18.9322 18.1607 18.9123 18.3374Z" fill="#46A358"/>
<path d="M23.4201 18.8577C23.4996 19.2208 23.5757 19.584 23.6551 19.9439C23.7445 20.3561 24.3799 20.1663 24.2905 19.7574C24.2111 19.3942 24.135 19.0311 24.0556 18.6712C23.9662 18.259 23.3341 18.4454 23.4201 18.8577Z" fill="#46A358"/>
<path d="M23.8536 23.6669C23.8602 24.0301 23.8701 24.3932 23.8767 24.7564C23.8867 25.1784 24.5486 25.1653 24.5386 24.7433C24.532 24.3801 24.5221 24.017 24.5155 23.6538C24.5088 23.2318 23.8469 23.2449 23.8536 23.6669Z" fill="#46A358"/>
<path d="M23.0735 28.4633C23.1165 28.7185 23.1562 28.9704 23.1992 29.2256C23.229 29.399 23.4541 29.4906 23.6096 29.4448C23.7982 29.3892 23.8611 29.2125 23.8313 29.0391C23.7883 28.7839 23.7486 28.532 23.7056 28.2768C23.6758 28.1034 23.4507 28.0118 23.2952 28.0576C23.1065 28.11 23.0437 28.2866 23.0735 28.4633Z" fill="#46A358"/>
<path d="M20.3731 26.0292C20.3764 26.2484 20.383 26.4643 20.3863 26.6835C20.3963 27.1056 21.0582 27.0925 21.0482 26.6705C21.0449 26.4513 21.0383 26.2353 21.035 26.0161C21.0284 25.5941 20.3665 25.6072 20.3731 26.0292Z" fill="#46A358"/>
<path d="M18.5494 23.2286C18.5725 23.5002 18.546 23.7554 18.4666 24.0171C18.3442 24.4228 18.9862 24.5798 19.1087 24.1774C19.2046 23.8666 19.2377 23.5394 19.2113 23.2155C19.1749 22.8 18.513 22.8099 18.5494 23.2286Z" fill="#46A358"/>
<path d="M19.3794 30.7603C19.3463 31.0155 19.3166 31.2706 19.2835 31.5258C19.2603 31.7025 19.3331 31.8759 19.5217 31.925C19.6773 31.9642 19.9023 31.8661 19.9255 31.6894C19.9586 31.4342 19.9884 31.179 20.0215 30.9238C20.0446 30.7472 19.9718 30.5738 19.7832 30.5247C19.6243 30.4854 19.4026 30.5836 19.3794 30.7603Z" fill="#46A358"/>
<path d="M22.756 34.4669C22.799 34.6828 22.8387 34.902 22.8818 35.118C22.9149 35.2914 23.1333 35.3863 23.2921 35.3372C23.4775 35.2816 23.547 35.1049 23.5139 34.9315C23.4709 34.7156 23.4311 34.4964 23.3881 34.2804C23.355 34.107 23.1366 34.0122 22.9777 34.0612C22.7924 34.1169 22.7229 34.2935 22.756 34.4669Z" fill="#46A358"/>
<path d="M20.9643 38.2131C21.0437 38.5763 21.1264 38.9362 21.2059 39.2993C21.2985 39.7116 21.9307 39.5218 21.8413 39.1129C21.7619 38.7497 21.6791 38.3898 21.5997 38.0267C21.507 37.6144 20.8716 37.8009 20.9643 38.2131Z" fill="#46A358"/>
<path d="M24.6591 40.5818C24.5896 40.837 24.5234 41.0922 24.4539 41.3507C24.3446 41.7596 24.9867 41.9199 25.0959 41.511C25.1654 41.2558 25.2316 41.0006 25.3011 40.7421C25.4103 40.3332 24.7683 40.1729 24.6591 40.5818Z" fill="#46A358"/>
<path d="M24.1651 12.1869C24.2081 12.4421 24.2511 12.6941 24.2941 12.9492C24.3239 13.1226 24.549 13.2143 24.7045 13.1684C24.8931 13.1128 24.956 12.9362 24.9262 12.7628C24.8832 12.5076 24.8402 12.2556 24.7972 12.0005C24.7674 11.8271 24.5423 11.7355 24.3868 11.7813C24.2015 11.8369 24.1353 12.0135 24.1651 12.1869Z" fill="#46A358"/>
<path d="M24.2447 16.6785C24.291 17.0057 24.3374 17.3296 24.3837 17.6567C24.4102 17.8301 24.526 17.9806 24.7213 17.9773C24.8834 17.9741 25.0688 17.8203 25.0456 17.6436C24.9993 17.3165 24.9529 16.9926 24.9066 16.6654C24.8801 16.492 24.7643 16.3415 24.569 16.3448C24.4069 16.3481 24.2182 16.5051 24.2447 16.6785Z" fill="#46A358"/>
<path d="M29.2088 20.3102C29.1194 20.8238 29.0267 21.3342 28.9374 21.8479C28.8646 22.2601 29.5066 22.4237 29.5794 22.0082C29.6688 21.4945 29.7615 20.9842 29.8508 20.4705C29.9236 20.0583 29.2816 19.8947 29.2088 20.3102Z" fill="#46A358"/>
<path d="M30.4961 19.3876C30.5028 19.6428 30.5061 19.898 30.5127 20.1499C30.5226 20.572 31.1845 20.5589 31.1746 20.1368C31.168 19.8816 31.1647 19.6264 31.158 19.3745C31.1481 18.9525 30.4895 18.9656 30.4961 19.3876Z" fill="#46A358"/>
<path d="M30.1349 22.8849C30.072 23.4313 30.0125 23.9777 29.9496 24.524C29.9033 24.9428 30.5652 24.9232 30.6115 24.5109C30.6744 23.9646 30.7339 23.4182 30.7968 22.8718C30.8432 22.4563 30.1813 22.4727 30.1349 22.8849Z" fill="#46A358"/>
<path d="M28.4215 23.8439C28.2792 24.1383 28.1402 24.4328 27.9978 24.724C27.8158 25.1035 28.395 25.4241 28.577 25.0413C28.7193 24.7469 28.8583 24.4524 29.0006 24.1613C29.1827 23.7817 28.6035 23.4611 28.4215 23.8439Z" fill="#46A358"/>
<path d="M27.4243 22.0935C27.3383 22.3159 27.2556 22.5352 27.1695 22.7576C27.1066 22.9245 27.2489 23.1142 27.4078 23.1568C27.5964 23.2058 27.7454 23.0848 27.8116 22.9212C27.8976 22.6987 27.9803 22.4795 28.0664 22.2571C28.1293 22.0902 27.987 21.9004 27.8281 21.8579C27.6395 21.8088 27.4905 21.9266 27.4243 22.0935Z" fill="#46A358"/>
<path d="M29.3141 26.3923C29.3008 26.6834 29.2909 26.9746 29.2776 27.2658C29.2611 27.6879 29.923 27.6715 29.9395 27.2527C29.9528 26.9615 29.9627 26.6704 29.976 26.3792C29.9925 25.9571 29.3306 25.9735 29.3141 26.3923Z" fill="#46A358"/>
<path d="M30.671 28.1101C30.6577 28.3817 30.6445 28.6565 30.6313 28.9281C30.6213 29.1047 30.8 29.2519 30.9688 29.2487C31.1575 29.2454 31.2832 29.0916 31.2932 28.915C31.3064 28.6434 31.3196 28.3686 31.3329 28.097C31.3428 27.9204 31.1641 27.7731 30.9953 27.7764C30.8067 27.7797 30.6809 27.9335 30.671 28.1101Z" fill="#46A358"/>
<path d="M30.1494 31.0348C30.1197 31.2703 30.0866 31.5092 30.0568 31.7447C30.0336 31.9181 30.1097 32.0948 30.2951 32.1439C30.4539 32.1831 30.6757 32.085 30.6988 31.9083C30.7286 31.6727 30.7617 31.4339 30.7915 31.1984C30.8147 31.025 30.7385 30.8483 30.5532 30.7992C30.3943 30.7567 30.1726 30.8581 30.1494 31.0348Z" fill="#46A358"/>
<path d="M27.6793 29.0128C27.6462 29.2124 27.6131 29.4152 27.58 29.6148C27.5502 29.7882 27.6363 29.9649 27.8183 30.0139C27.9805 30.0532 28.1923 29.9518 28.2221 29.7784C28.2551 29.5788 28.2882 29.376 28.3213 29.1764C28.3511 29.003 28.2651 28.8263 28.0831 28.7772C27.9209 28.7347 27.7091 28.8361 27.6793 29.0128Z" fill="#46A358"/>
<path d="M28.1564 34.2148C28.1597 34.3587 28.163 34.5059 28.1663 34.6499C28.1762 35.0719 28.8381 35.0588 28.8282 34.6368C28.8249 34.4928 28.8216 34.3456 28.8183 34.2017C28.8083 33.7796 28.1464 33.7927 28.1564 34.2148Z" fill="#46A358"/>
<path d="M30.295 36.1352C30.2983 36.2791 30.3017 36.4263 30.305 36.5703C30.3149 36.9923 30.9768 36.9793 30.9669 36.5572C30.9636 36.4133 30.9602 36.266 30.9569 36.1221C30.947 35.7 30.2851 35.7131 30.295 36.1352Z" fill="#46A358"/>
<path d="M28.3889 40.1005C28.4154 40.3557 28.3889 40.5913 28.3061 40.8334C28.2499 41.0002 28.3823 41.19 28.5444 41.2325C28.7298 41.2783 28.8886 41.1638 28.9482 40.9969C29.0475 40.7058 29.0839 40.395 29.0508 40.0907C29.0309 39.914 28.9019 39.7668 28.7132 39.7701C28.5444 39.7701 28.369 39.9238 28.3889 40.1005Z" fill="#46A358"/>
<path d="M29.2056 18.6517C29.1195 18.8185 29.0302 18.9854 28.9441 19.149C28.7489 19.5219 29.3247 19.8425 29.5233 19.4663C29.6093 19.2994 29.6987 19.1326 29.7847 18.969C29.98 18.596 29.4041 18.2754 29.2056 18.6517Z" fill="#46A358"/>
<path d="M12.0394 12.4321C12.099 12.7756 12.1619 13.1224 12.2214 13.4659C12.2512 13.6393 12.4763 13.7309 12.6318 13.6851C12.8205 13.6295 12.8867 13.4528 12.8536 13.2794C12.794 12.9359 12.7311 12.5891 12.6715 12.2456C12.6418 12.0722 12.4167 11.9806 12.2612 12.0264C12.0725 12.082 12.0063 12.2587 12.0394 12.4321Z" fill="#46A358"/>
<path d="M13.0265 14.595C13.1787 14.9549 13.3343 15.318 13.4865 15.6779C13.556 15.8415 13.7149 15.9527 13.8969 15.8971C14.0524 15.8513 14.1881 15.655 14.1186 15.4914C13.9664 15.1315 13.8108 14.7684 13.6586 14.4085C13.5891 14.2449 13.4303 14.1337 13.2482 14.1893C13.0927 14.2351 12.957 14.4314 13.0265 14.595Z" fill="#46A358"/>
<path d="M12.1228 15.8019C12.0467 16.3057 12.0533 16.7867 12.1427 17.284C12.2155 17.6962 12.8476 17.5097 12.7781 17.0975C12.7119 16.7245 12.7119 16.3384 12.7682 15.9622C12.8244 15.55 12.1824 15.3864 12.1228 15.8019Z" fill="#46A358"/>
<path d="M13.38 17.6931C13.4925 18.0006 13.6017 18.3114 13.7143 18.619C13.8566 19.0149 14.492 18.8316 14.3497 18.4325C14.2372 18.125 14.128 17.8141 14.0154 17.5066C13.8731 17.1107 13.2377 17.294 13.38 17.6931Z" fill="#46A358"/>
<path d="M11.8399 19.0019C11.8465 19.365 11.8564 19.7282 11.8631 20.0913C11.873 20.5134 12.5349 20.5003 12.525 20.0783C12.5183 19.7151 12.5084 19.3519 12.5018 18.9888C12.4952 18.5667 11.8333 18.5798 11.8399 19.0019Z" fill="#46A358"/>
<path d="M13.0821 20.2318C13.0888 20.559 13.0954 20.8862 13.102 21.2134C13.1119 21.6354 13.7738 21.6223 13.7639 21.2003C13.7573 20.8731 13.7507 20.5459 13.744 20.2188C13.7341 19.7967 13.0722 19.8098 13.0821 20.2318Z" fill="#46A358"/>
<path d="M14.9319 20.8796C15.0642 21.2591 15.1999 21.6387 15.3323 22.0182C15.4713 22.414 16.1067 22.2308 15.9677 21.8317C15.8354 21.4522 15.6997 21.0727 15.5673 20.6931C15.4283 20.2973 14.7929 20.4805 14.9319 20.8796Z" fill="#46A358"/>
<path d="M15.6573 24.1383C15.697 24.3379 15.74 24.5375 15.7798 24.737C15.8162 24.9104 16.0313 25.0053 16.1901 24.9562C16.3755 24.9006 16.4483 24.7239 16.4119 24.5505C16.3722 24.351 16.3291 24.1514 16.2894 23.9518C16.253 23.7784 16.0379 23.6835 15.879 23.7326C15.697 23.785 15.6209 23.9649 15.6573 24.1383Z" fill="#46A358"/>
<path d="M13.839 24.1741C13.9482 24.4816 14.0276 24.7957 14.064 25.1196C14.0839 25.2962 14.213 25.4435 14.4016 25.4402C14.5671 25.4369 14.7458 25.2831 14.7259 25.1065C14.6829 24.7237 14.6035 24.3507 14.4744 23.9876C14.3321 23.5917 13.6967 23.7749 13.839 24.1741Z" fill="#46A358"/>
<path d="M12.1407 22.8691C12.1473 23.1242 12.1506 23.3794 12.1572 23.6314C12.1672 24.0534 12.8291 24.0403 12.8191 23.6183C12.8125 23.3631 12.8092 23.1079 12.8026 22.856C12.7926 22.4339 12.1341 22.447 12.1407 22.8691Z" fill="#46A358"/>
<path d="M12.9385 26.7782C12.965 27.1054 13.0278 27.426 13.137 27.7335C13.2794 28.1294 13.9148 27.9462 13.7725 27.5471C13.6798 27.2919 13.6202 27.0334 13.6004 26.7651C13.5706 26.3464 12.9087 26.3594 12.9385 26.7782Z" fill="#46A358"/>
<path d="M14.3898 29.563C14.4494 29.7626 14.5089 29.9622 14.5685 30.1585C14.6877 30.5609 15.3231 30.3777 15.2039 29.972C15.1444 29.7724 15.0848 29.5761 15.0252 29.3765C14.9061 28.9741 14.2707 29.1573 14.3898 29.563Z" fill="#46A358"/>
<path d="M15.1676 27.0371C15.2073 27.181 15.247 27.325 15.2867 27.4722C15.3993 27.8779 16.0347 27.6914 15.9222 27.2857C15.8824 27.1418 15.8427 26.9978 15.803 26.8506C15.6905 26.4449 15.0551 26.6314 15.1676 27.0371Z" fill="#46A358"/>
<path d="M13.2905 32.4774C13.3732 32.8013 13.4526 33.1285 13.5354 33.4524C13.638 33.8613 14.2734 33.6748 14.1708 33.2659C14.0881 32.942 14.0086 32.6148 13.9259 32.2909C13.8233 31.882 13.1879 32.0684 13.2905 32.4774Z" fill="#46A358"/>
<path d="M14.9357 37.2415C14.9953 37.3854 15.0515 37.5294 15.1111 37.6733C15.1773 37.8369 15.3395 37.9481 15.5215 37.8925C15.6803 37.8467 15.8094 37.6504 15.7432 37.4868C15.6837 37.3429 15.6274 37.1989 15.5678 37.055C15.5016 36.8914 15.3395 36.7802 15.1574 36.8358C14.9986 36.8816 14.8695 37.0779 14.9357 37.2415Z" fill="#46A358"/>
<path d="M36.4801 23.6831C36.3047 24.0332 36.126 24.38 35.9506 24.73C35.7586 25.1063 36.3378 25.4269 36.5297 25.0474C36.7051 24.6973 36.8839 24.3505 37.0593 24.0004C37.2512 23.6242 36.672 23.3068 36.4801 23.6831Z" fill="#46A358"/>
<path d="M37.4059 24.5047C37.3231 24.8352 37.2371 25.1623 37.1543 25.4928C37.0484 25.9017 37.6905 26.0621 37.7964 25.6531C37.8791 25.3227 37.9652 24.9955 38.0479 24.6651C38.1505 24.2594 37.5084 24.0991 37.4059 24.5047Z" fill="#46A358"/>
<path d="M36.5931 27.6323C36.5104 27.9071 36.4277 28.1819 36.3416 28.4567C36.2192 28.8624 36.8612 29.0195 36.9837 28.617C37.0664 28.3422 37.1491 28.0674 37.2352 27.7926C37.3543 27.3902 36.7123 27.2298 36.5931 27.6323Z" fill="#46A358"/>
<path d="M36.0364 26.3071C35.9669 26.4347 35.8941 26.5655 35.8246 26.6931C35.6194 27.0628 36.1985 27.3835 36.4037 27.0105C36.4732 26.8829 36.546 26.752 36.6155 26.6244C36.8207 26.258 36.2416 25.9374 36.0364 26.3071Z" fill="#46A358"/>
<path d="M37.6708 26.4644C37.641 26.7196 37.6112 26.9748 37.5814 27.2299C37.5615 27.4066 37.631 27.58 37.8197 27.6291C37.9752 27.6683 38.2003 27.5702 38.2234 27.3935C38.2532 27.1383 38.283 26.8831 38.3128 26.628C38.3327 26.4513 38.2632 26.2779 38.0745 26.2288C37.9157 26.1895 37.6906 26.2877 37.6708 26.4644Z" fill="#46A358"/>
<path d="M34.5531 28.1625C34.4869 28.3719 34.3877 28.5616 34.2685 28.7448C34.0369 29.0982 34.616 29.4155 34.8477 29.0622C34.9999 28.8332 35.1124 28.5845 35.1952 28.3228C35.2481 28.1559 35.1224 27.9662 34.9569 27.9236C34.7716 27.8811 34.6061 27.9923 34.5531 28.1625Z" fill="#46A358"/>
<path d="M34.5341 30.9756C34.3918 31.2079 34.3223 31.4729 34.3356 31.7445C34.3554 32.1633 35.0173 32.1534 34.9975 31.7314C34.9909 31.5678 35.024 31.4337 35.1133 31.2963C35.3351 30.9331 34.7559 30.6158 34.5341 30.9756Z" fill="#46A358"/>
<path d="M36.2588 30.2563C36.1926 30.4755 36.1264 30.6979 36.0635 30.9171C35.9444 31.3228 36.5864 31.4799 36.7055 31.0775C36.7717 30.8583 36.8379 30.6358 36.9008 30.4166C37.0199 30.0109 36.3779 29.8538 36.2588 30.2563Z" fill="#46A358"/>
<path d="M35.7113 33.4824C35.6418 33.7212 35.5756 33.9568 35.5061 34.1956C35.3903 34.6013 36.0323 34.7616 36.1481 34.3559C36.2176 34.1171 36.2838 33.8815 36.3533 33.6427C36.4692 33.2403 35.8271 33.0799 35.7113 33.4824Z" fill="#46A358"/>
<path d="M37.8095 28.8362C37.7929 28.9834 37.7797 29.1274 37.7631 29.2746C37.7433 29.4513 37.9385 29.5985 38.1007 29.5952C38.2993 29.592 38.4052 29.4382 38.425 29.2615C38.4416 29.1143 38.4548 28.9703 38.4714 28.8231C38.4912 28.6464 38.296 28.4992 38.1338 28.5025C37.9352 28.509 37.8293 28.6595 37.8095 28.8362Z" fill="#46A358"/>
<path d="M33.654 35.3794C33.6209 35.4906 33.5845 35.5986 33.5514 35.7098C33.4256 36.1123 34.0677 36.2726 34.1934 35.8701C34.2265 35.7589 34.2629 35.6509 34.296 35.5397C34.4218 35.1373 33.7798 34.9802 33.654 35.3794Z" fill="#46A358"/>
<path d="M33.1216 38.7199C33.0521 38.9032 32.9792 39.0864 32.9097 39.2696C32.8469 39.4332 32.9892 39.6262 33.148 39.6687C33.34 39.7178 33.4856 39.5967 33.5518 39.4332C33.6213 39.2499 33.6941 39.0667 33.7636 38.8835C33.8265 38.7199 33.6842 38.5269 33.5253 38.4844C33.3334 38.4353 33.1877 38.5531 33.1216 38.7199Z" fill="#46A358"/>
<path d="M35.7247 37.3886C35.728 37.4965 35.728 37.6078 35.7313 37.7157C35.7413 38.1378 36.4032 38.1247 36.3932 37.7027C36.3899 37.5947 36.3899 37.4835 36.3866 37.3755C36.3767 36.9535 35.7148 36.9665 35.7247 37.3886Z" fill="#46A358"/>
<path d="M34.4911 41.7234C34.4745 41.8706 34.4613 42.0146 34.4448 42.1618C34.4249 42.3385 34.6202 42.4857 34.7823 42.4824C34.9809 42.4792 35.0868 42.3254 35.1067 42.1487C35.1232 42.0015 35.1364 41.8576 35.153 41.7103C35.1729 41.5337 34.9776 41.3864 34.8154 41.3897C34.6202 41.393 34.5109 41.5467 34.4911 41.7234Z" fill="#46A358"/>
<path d="M4.25939 28.0806C4.31565 28.2606 4.37522 28.4438 4.43148 28.6237C4.55725 29.0261 5.19267 28.8397 5.06691 28.4373C5.01065 28.2573 4.95108 28.0741 4.89482 27.8942C4.76574 27.4917 4.13032 27.6782 4.25939 28.0806Z" fill="#46A358"/>
<path d="M4.94053 27.3379C5.16227 27.6094 5.38732 27.881 5.60906 28.1492C5.72158 28.2867 5.96317 28.2572 6.0757 28.1394C6.21139 27.9987 6.17829 27.8155 6.06577 27.6781C5.84403 27.4066 5.61898 27.135 5.39725 26.8667C5.28472 26.7293 5.04313 26.7588 4.9306 26.8766C4.79491 27.014 4.82801 27.2005 4.94053 27.3379Z" fill="#46A358"/>
<path d="M6.21002 29.6411C6.40197 29.9093 6.59393 30.1776 6.78257 30.4426C7.02747 30.7861 7.5934 30.4459 7.34849 30.1024C7.15654 29.8341 6.96459 29.5658 6.77595 29.3008C6.52773 28.9573 5.96181 29.2943 6.21002 29.6411Z" fill="#46A358"/>
<path d="M5.39712 30.4233C5.54936 30.6752 5.7016 30.9271 5.85384 31.1791C6.07226 31.5389 6.63819 31.1987 6.41976 30.8388C6.26752 30.5869 6.11529 30.335 5.96305 30.083C5.74131 29.7199 5.17869 30.0601 5.39712 30.4233Z" fill="#46A358"/>
<path d="M6.87955 33.1221C7.0715 33.4624 7.26677 33.8026 7.45872 34.1429C7.66722 34.5093 8.23314 34.1691 8.02464 33.8026C7.83269 33.4624 7.63743 33.1221 7.44548 32.7819C7.23367 32.4155 6.67105 32.7557 6.87955 33.1221Z" fill="#46A358"/>
<path d="M7.46557 32.131C7.59795 32.3273 7.73033 32.5269 7.86271 32.7232C8.09769 33.0732 8.66361 32.733 8.42864 32.3829C8.29626 32.1866 8.16388 31.987 8.0315 31.7907C7.79321 31.4407 7.22729 31.7777 7.46557 32.131Z" fill="#46A358"/>
<path d="M7.77321 30.757C7.88242 30.9893 8.06775 31.1693 8.28949 31.3001C8.66016 31.5128 8.98118 30.9402 8.61051 30.7276C8.47813 30.6523 8.39871 30.5509 8.33582 30.4168C8.25971 30.2565 8.02142 30.2237 7.87911 30.3088C7.71694 30.4102 7.69709 30.5967 7.77321 30.757Z" fill="#46A358"/>
<path d="M5.29126 32.4742C5.33428 32.6542 5.37399 32.8341 5.41702 33.0173C5.45673 33.1907 5.66523 33.2856 5.8274 33.2365C6.00942 33.1842 6.08885 33.001 6.04914 32.8309C6.00611 32.6509 5.9664 32.471 5.92337 32.2878C5.88366 32.1144 5.67516 32.0195 5.51299 32.0686C5.33097 32.1209 5.25154 32.3041 5.29126 32.4742Z" fill="#46A358"/>
<path d="M7.37998 35.8936C7.53222 36.2011 7.68446 36.5087 7.83338 36.8129C7.91281 36.9733 8.14779 37.006 8.2901 36.9209C8.45557 36.8228 8.47874 36.6297 8.39931 36.4694C8.24707 36.1619 8.09484 35.8543 7.94591 35.5501C7.86648 35.3898 7.6315 35.357 7.48919 35.4421C7.32372 35.5435 7.30055 35.7366 7.37998 35.8936Z" fill="#46A358"/>
<path d="M9.85234 34.9676C9.96817 35.1835 10.0807 35.3995 10.1965 35.6154C10.3951 35.9884 10.9577 35.6448 10.7625 35.2751C10.6466 35.0592 10.5341 34.8433 10.4183 34.6274C10.2164 34.2544 9.65377 34.5946 9.85234 34.9676Z" fill="#46A358"/>
<path d="M10.6054 39.6463C10.7013 39.8263 10.7973 40.0062 10.8966 40.1829C11.0985 40.5558 11.6611 40.2123 11.4625 39.8426C11.3665 39.6627 11.2706 39.4827 11.1713 39.3061C10.9694 38.9331 10.4035 39.2734 10.6054 39.6463Z" fill="#46A358"/>
<path d="M11.7818 37.987C11.8943 38.167 12.0101 38.3469 12.1227 38.5269C12.3477 38.8835 12.9136 38.5432 12.6886 38.1866C12.5761 38.0067 12.4602 37.8267 12.3477 37.6468C12.1193 37.2902 11.5534 37.6304 11.7818 37.987Z" fill="#46A358"/>
<path d="M13.0974 43.0323C13.1901 43.1959 13.2861 43.3562 13.3787 43.5198C13.5906 43.8862 14.1532 43.5427 13.9447 43.1795C13.852 43.0159 13.756 42.8556 13.6634 42.692C13.4516 42.3256 12.8856 42.6659 13.0974 43.0323Z" fill="#46A358"/>
<path d="M2.4243 41.0104C2.64604 41.1151 2.87109 41.2165 3.09283 41.3212C3.47673 41.5012 3.80106 40.9286 3.41385 40.7487C3.19211 40.644 2.96707 40.5426 2.74533 40.4379C2.36473 40.2612 2.0404 40.8305 2.4243 41.0104Z" fill="#46A358"/>
<path d="M4.53224 41.9621C4.77714 42.1355 5.02205 42.3122 5.26364 42.4856C5.40926 42.5903 5.63431 42.5019 5.71374 42.358C5.80971 42.1879 5.73028 42.0177 5.58466 41.913C5.33976 41.7396 5.09486 41.563 4.85326 41.3896C4.70764 41.2849 4.4826 41.3732 4.40317 41.5172C4.3105 41.6873 4.38993 41.8574 4.53224 41.9621Z" fill="#46A358"/>
<path d="M4.20903 40.9611C4.37782 40.9971 4.53337 41.0527 4.6856 41.1378C5.05958 41.3406 5.3806 40.7681 5.00663 40.5652C4.80806 40.4573 4.59294 40.3755 4.3712 40.3264C3.95751 40.2348 3.79204 40.8695 4.20903 40.9611Z" fill="#46A358"/>
<path d="M6.1481 42.3581C6.29702 42.4628 6.44595 42.5708 6.59488 42.6755C6.7405 42.7769 6.96555 42.6918 7.04498 42.5479C7.14095 42.3778 7.06152 42.2044 6.9159 42.1029C6.76698 41.9982 6.61805 41.8903 6.46912 41.7856C6.3235 41.6842 6.09845 41.7692 6.01902 41.9132C5.92636 42.0833 6.00248 42.2534 6.1481 42.3581Z" fill="#46A358"/>
<path d="M6.10094 43.3364C6.17706 43.4443 6.25318 43.5523 6.3293 43.6602C6.57089 44.0038 7.13682 43.6668 6.89523 43.32C6.81911 43.212 6.74299 43.1041 6.66687 42.9961C6.42527 42.6493 5.85604 42.9895 6.10094 43.3364Z" fill="#46A358"/>
<path d="M7.60177 43.8632C7.7507 43.9875 7.89962 44.1118 8.05186 44.2361C8.18755 44.3506 8.38943 44.3605 8.5185 44.2263C8.63765 44.1053 8.64758 43.8763 8.50858 43.765C8.35965 43.6407 8.21072 43.5164 8.05848 43.392C7.92279 43.2775 7.72091 43.2677 7.59184 43.4019C7.4727 43.5196 7.46277 43.7487 7.60177 43.8632Z" fill="#46A358"/>
<path d="M41.7619 34.2249C41.4078 34.1595 41.057 34.166 40.7062 34.2543C40.2925 34.359 40.4811 34.9872 40.8948 34.8825C41.1265 34.8236 41.3614 34.8138 41.5964 34.8596C42.0167 34.9381 42.1789 34.3034 41.7619 34.2249Z" fill="#46A358"/>
<path d="M39.4787 34.9019C39.3529 34.9967 39.2238 35.0883 39.0981 35.1832C38.9558 35.2879 38.8896 35.4711 38.9888 35.6347C39.0749 35.7754 39.2999 35.8506 39.4456 35.7427C39.5713 35.6478 39.7004 35.5562 39.8262 35.4613C39.9685 35.3566 40.0347 35.1734 39.9354 35.0098C39.8493 34.8691 39.6243 34.7972 39.4787 34.9019Z" fill="#46A358"/>
<path d="M39.5847 34.5812C40.0116 34.5714 39.9984 33.9171 39.5715 33.9269C39.1445 33.9367 39.1578 34.591 39.5847 34.5812Z" fill="#46A358"/>
</g>
<defs>
<clipPath id="clip0_42070_8531">
<rect width="44" height="49" fill="white"/>
</clipPath>
</defs>
</svg>
