<svg width="61" height="46" viewBox="0 0 61 46" fill="none" xmlns="http://www.w3.org/2000/svg">
<path d="M19.2979 44.7374C19.857 40.1054 16.6239 36.647 13.1789 33.9798C11.1724 32.4239 9.21087 31.1259 7.90321 28.8988C7.23586 27.7564 6.59555 26.4672 6.22129 25.2003C5.49081 22.7332 6.75337 18.8569 9.87823 21.7019C11.6774 23.3422 12.0922 25.4581 13.4675 27.2807C14.2431 28.312 15.4335 28.8632 16.6735 28.2053C20.4026 26.2316 17.5168 19.3858 16.6826 16.6653C15.6725 13.3714 15.1404 10.2019 16.8404 7.03235C17.3995 5.99215 18.0263 4.92083 18.7432 3.98287C19.2077 3.37831 19.7984 2.72485 20.4612 2.30699C21.832 1.43571 22.6572 1.43571 24.1723 1.89802C25.7866 2.39145 25.8001 2.47591 26.1293 4.0051C26.2826 4.7119 26.3457 5.48983 26.3818 6.21886C26.4584 7.76138 26.3322 9.31724 26.012 10.8331C25.4123 13.7092 23.6853 16.2519 23.3065 19.1725C23.027 21.3196 23.2208 28.1431 26.8101 27.503C31.0172 26.7517 30.7151 20.0927 34.9086 19.2036C38.3987 18.4612 40.1032 22.2442 38.6242 24.8402C37.8215 26.2538 36.4868 27.3474 35.2017 28.312C32.911 30.0323 30.1109 30.9303 27.8608 32.6684C23.789 35.8246 25.1418 40.7855 26.8147 44.853C27.1393 45.6398 28.447 45.2931 28.1178 44.4974C26.9905 41.7546 25.5746 38.3984 27.0987 35.5179C28.5101 32.8507 32.2347 31.9172 34.6381 30.3435C37.8847 28.2187 42.5426 24.2179 39.792 20.0082C37.4924 16.4831 33.0373 17.6611 30.936 20.6128C30.3002 21.5063 29.8087 22.4887 29.2451 23.4266C28.9881 23.8534 28.731 24.2846 28.4289 24.6846C28.2125 24.9425 27.9961 25.1959 27.7796 25.4537C26.0706 25.8271 25.1868 25.3781 25.1282 24.0979C23.4147 20.5061 25.489 16.8254 26.6523 13.5136C27.5181 11.0509 27.8878 8.42817 27.703 5.82767C27.5767 4.02732 27.3873 1.5913 25.6693 0.515535C24.1588 -0.431314 21.8365 0.111013 20.353 0.848933C18.1435 1.95137 16.7908 4.2896 15.6725 6.37C12.8002 11.7133 15.6996 16.4208 16.7682 21.8041C16.908 22.5198 17.2642 24.089 17.0253 24.8847C16.2948 25.5426 15.5643 26.1961 14.8293 26.854C14.4099 26.325 14.0943 25.7471 13.8733 25.1114C13.4495 24.1823 13.0031 23.3155 12.3853 22.4887C11.4113 21.1817 9.5716 19.0347 7.69128 19.1414C5.86507 19.248 4.79189 21.1506 4.59799 22.7376C4.30941 25.0847 5.5855 27.5874 6.73985 29.5789C9.94135 35.0956 18.865 37.1271 17.9451 44.7463C17.8459 45.5865 19.1987 45.582 19.2979 44.7374Z" fill="#46A358"/>
<path d="M30.9861 22.573C31.9601 17.7054 30.1204 13.2557 29.7371 8.45031C29.5071 5.57865 30.7472 0.986648 34.6882 2.29357C37.6236 3.26709 38.7374 6.71664 38.539 9.47718C38.3947 11.4953 37.4117 17.4165 41.3527 16.8653C44.7346 16.3941 46.4796 10.8374 48.121 8.48143C49.5278 6.46326 52.6346 3.51603 55.3672 4.33841C59.696 5.64088 56.9229 10.7619 54.9298 12.7756C51.5705 16.1674 47.9902 19.1679 45.0277 22.9464C43.3097 25.138 41.8217 28.7387 45.6319 29.7211C47.0974 30.0989 48.5088 29.5966 49.83 29.0009C50.8941 28.5209 51.9087 27.9474 53.0405 27.6318C55.1057 27.0539 57.5 27.5073 56.1338 30.0367C52.9368 35.9623 45.6184 31.5926 40.8973 34.0775C36.8932 36.189 35.9598 40.8566 36.3385 44.9507C36.4152 45.7997 37.7724 45.8086 37.6913 44.9507C37.4252 42.0968 37.6552 39.0118 39.6573 36.7491C42.2455 33.8241 45.6996 34.891 49.1265 34.8243C52.6256 34.7576 57.1303 33.0862 57.8563 29.2321C58.6499 25.0091 53.771 25.827 51.2684 26.845C50.1636 27.294 49.131 27.9919 47.9767 28.3208C47.0613 28.5831 45.6139 28.7253 44.8924 27.8763C44.1935 27.0495 44.7571 25.6581 45.19 24.9557C46.7727 22.3774 49.1987 20.0259 51.354 17.9055C54.3256 14.9805 59.3939 11.8776 58.9565 7.10783C58.6228 3.45824 55.2049 2.1202 52.053 3.48935C50.1591 4.31174 48.5944 5.61865 47.3589 7.25008C45.7446 9.37938 44.8834 12.3044 42.958 14.1803C42.2636 14.856 41.5827 16.2918 40.0315 14.8827C39.3416 14.2559 39.5491 12.5844 39.6212 11.7265C39.7159 10.6018 39.9594 9.50385 39.9233 8.3703C39.8647 6.45437 39.2199 4.51177 37.9618 3.02704C35.3014 -0.102451 30.7336 0.0353538 28.966 3.96056C27.9109 6.30768 28.3753 8.99264 28.8172 11.4287C29.4666 15.0249 30.418 18.5545 29.683 22.2174C29.5162 23.0576 30.8193 23.4176 30.9861 22.573Z" fill="#46A358"/>
<path d="M30.6836 31.0059C30.0478 35.589 29.0062 40.0787 27.5542 44.4796C27.2837 45.2975 28.5913 45.6487 28.8574 44.8352C30.3093 40.4344 31.3509 35.9446 31.9867 31.3615C32.104 30.5169 30.8008 30.1568 30.6836 31.0059Z" fill="#46A358"/>
<path d="M14.5053 43.9728C14.3294 40.4432 11.8449 38.0605 8.98606 36.2468C7.13279 35.0688 5.10367 34.0864 3.51193 32.5528C2.82654 31.8949 1.55044 30.6191 1.48281 29.5967C1.25284 26.1871 5.47793 28.841 6.41583 29.6278C7.07417 30.1834 8.03463 29.241 7.37178 28.6854C5.89728 27.4451 3.2504 25.8315 1.22578 26.765C-0.406535 27.5163 -0.135985 29.3788 0.490789 30.7213C3.12865 36.4247 12.8053 37.0781 13.1525 43.9728C13.1931 44.8263 14.5504 44.8307 14.5053 43.9728Z" fill="#46A358"/>
<path d="M44.8393 45.293C46.5257 42.7859 48.7488 40.7366 51.4723 39.3585C53.9523 38.105 57.0276 37.8871 59.2236 36.1135C61.7442 34.0775 61.8749 29.0855 57.704 29.2144C56.8337 29.241 56.8337 30.5746 57.704 30.548C59.3498 30.7702 60.0172 31.6682 59.7151 33.2374C59.3769 34.1398 58.8042 34.851 57.9971 35.3667C57.0096 36.0557 55.8101 36.3713 54.6738 36.7269C53.2264 37.1803 51.815 37.656 50.4758 38.3672C47.6891 39.852 45.412 42.0302 43.6669 44.6218C43.1845 45.3375 44.3568 46.0043 44.8393 45.293Z" fill="#46A358"/>
<path d="M48.5134 33.5621C42.7823 34.629 40.6675 40.2523 39.3102 45.1732C39.0802 46.0045 40.3879 46.3557 40.6134 45.5289C41.8489 41.0524 43.63 35.8248 48.8742 34.8512C49.7264 34.6868 49.3656 33.4021 48.5134 33.5621Z" fill="#46A358"/>
<path d="M18.2928 13.2647C17.621 10.602 18.4597 7.68585 20.6331 5.89884C21.0705 5.52099 21.5665 5.23205 22.1121 5.03201C23.6136 5.34762 24.3126 6.13889 24.2088 7.4058C24.2359 8.14372 24.0916 8.87275 23.9158 9.584C23.5595 11.0198 22.9328 12.3845 22.4683 13.7893C21.2734 17.4077 19.5554 23.3244 22.784 26.405C23.0951 26.7029 23.5776 26.2317 23.2619 25.9338C20.4302 23.2355 21.8821 18.0479 22.8516 14.8161C23.6903 12.0156 25.9674 8.29486 24.4298 5.35207C23.2304 3.05829 20.4798 4.92087 19.3119 6.26336C17.5849 8.25041 17.0032 10.922 17.639 13.4425C17.7472 13.8604 18.3965 13.6826 18.2928 13.2647Z" fill="#46A358"/>
<path d="M32.5867 24.0623C32.9745 23.2132 33.7591 22.013 34.8097 21.8707C36.4105 21.6529 37.2356 23.6355 36.3789 24.9469C35.5718 26.1827 34.0341 27.0451 32.7084 27.5741C30.5035 28.4498 29.0244 29.6589 27.4237 31.3881C27.1306 31.7038 27.6086 32.1794 27.9017 31.8593C28.8711 30.8058 29.8632 29.7123 31.1257 28.9832C32.1313 28.4009 33.2991 28.1742 34.3092 27.6052C35.5402 26.9073 37.5332 25.4003 37.6775 23.88C37.7948 22.6531 36.4826 21.2306 35.2561 21.155C33.7771 21.0617 32.5416 22.5553 32.005 23.7289C31.8246 24.1112 32.4108 24.4535 32.5867 24.0623Z" fill="#46A358"/>
<path d="M7.29975 24.8361C7.44855 23.6669 7.89496 23.2357 8.63446 23.5514C8.89599 23.5558 9.11243 23.6492 9.2928 23.8314C9.64903 24.0626 9.8835 24.4049 10.0954 24.7649C10.4742 25.4095 10.6501 26.1608 10.9296 26.8453C11.2859 27.7255 11.7548 28.4412 12.5619 28.9657C12.9272 29.2058 13.2654 28.6279 12.9046 28.3879C10.9206 27.0898 11.4752 23.7203 8.9952 22.9023C7.50717 22.4134 6.01013 23.6847 6.71807 25.1695C6.90294 25.5606 7.48463 25.2228 7.29975 24.8361Z" fill="#46A358"/>
<path d="M31.5323 7.58342C31.1806 5.66305 33.2322 4.13387 34.8014 5.53414C35.6672 6.30762 36.0009 7.73012 36.0054 8.84144C36.0144 10.3484 35.3155 11.6953 35.6131 13.2067C35.6942 13.629 36.3481 13.4512 36.2669 13.0289C35.8926 11.1308 36.9658 9.31264 36.4833 7.34338C36.1947 6.16537 35.6086 4.85401 34.373 4.40948C32.1455 3.61377 30.5087 5.73862 30.8784 7.75679C30.9596 8.17909 31.6089 8.00128 31.5323 7.58342Z" fill="#46A358"/>
<path d="M31.194 11.98C32.2943 14.2605 32.8354 16.2609 32.7542 18.7902C32.7407 19.2214 33.417 19.217 33.4306 18.7902C33.5162 16.1319 32.93 14.0293 31.7802 11.6466C31.5908 11.2599 31.0091 11.5977 31.194 11.98Z" fill="#46A358"/>
<path d="M48.7339 10.0729C49.3877 8.60153 50.6232 7.67246 52.0527 6.97455C52.463 6.76117 52.8868 6.5878 53.3287 6.45C55.2361 7.09012 55.7186 7.97474 54.7762 9.11274C54.3253 9.81065 53.6714 10.4374 53.1078 11.0509C50.9614 13.3847 48.6437 15.5451 46.1952 17.5633C45.8616 17.8389 46.3395 18.3101 46.6732 18.0345C48.8872 16.2119 50.993 14.2737 52.959 12.1933C54.1404 10.9442 56.4085 9.09051 55.9125 7.1168C54.925 3.20493 48.9774 7.86805 48.1477 9.73952C47.9764 10.1263 48.5626 10.4641 48.7339 10.0729Z" fill="#46A358"/>
<path d="M44.9152 19.9858C42.7553 21.5506 41.4431 23.831 41.1951 26.4582C41.1545 26.885 41.8309 26.8805 41.8715 26.4582C42.0969 24.0844 43.3054 21.9729 45.2579 20.5593C45.6051 20.3104 45.2669 19.728 44.9152 19.9858Z" fill="#46A358"/>
<path d="M49.1938 31.1079C49.6357 30.8456 50.0776 30.57 50.5421 30.3433C50.8938 30.1522 51.2635 30.0055 51.6513 29.9032C52.3773 29.6054 52.6208 30.1611 52.3773 31.5702C51.8993 32.4993 49.3111 32.5349 48.5084 32.486C46.5019 32.3704 44.6125 31.8281 42.633 32.4282C42.2181 32.5526 42.394 33.1972 42.8134 33.0727C45.1897 32.3482 47.5029 33.4017 49.9018 33.1394C51.2049 32.9927 53.0492 32.4015 53.6985 31.1568C54.0592 30.4633 53.9735 29.5476 53.1844 29.1698C51.8903 28.5519 49.8702 29.921 48.8511 30.53C48.4814 30.7567 48.8196 31.3346 49.1938 31.1079Z" fill="#46A358"/>
<path d="M39.1397 33.5884C35.6226 36.4023 34.342 40.6698 33.9858 44.9728C33.9497 45.3996 34.6261 45.3996 34.6621 44.9728C35.0048 40.8342 36.2358 36.7623 39.6177 34.0596C39.9559 33.7884 39.4734 33.3217 39.1397 33.5884Z" fill="#46A358"/>
<path d="M24.0018 34.722C22.9557 36.5091 22.9872 38.4561 23.2172 40.4565C23.4111 42.1368 23.632 43.786 24.8089 45.0929C25.0975 45.413 25.5755 44.9418 25.2869 44.6217C24.1326 43.3415 23.9883 41.5634 23.835 39.9275C23.6726 38.2249 23.6952 36.5757 24.588 35.0554C24.8044 34.6865 24.2227 34.3531 24.0018 34.722Z" fill="#46A358"/>
<path d="M5.34297 30.3301C3.38599 30.3568 4.16157 32.3883 5.20769 33.1173C6.51535 34.0286 8.00338 34.6376 9.3922 35.4066C11.029 36.3135 11.6874 37.8427 12.9454 39.1185C13.2475 39.4252 13.7255 38.954 13.4234 38.6473C12.1744 37.3804 11.5701 35.8645 9.96035 34.9577C9.14871 34.4998 8.29647 34.1131 7.48031 33.673C7.05645 33.4463 6.63259 33.2195 6.22677 32.9662C6.06444 32.8684 5.8976 32.7661 5.73527 32.6683C4.92813 32.366 4.80187 31.8104 5.34748 31.0013C5.77585 30.9924 5.77585 30.3257 5.34297 30.3301Z" fill="#46A358"/>
<path d="M56.2376 33.4018C56.2602 34.2908 55.8453 34.7754 54.9841 34.8598C54.5692 35.0243 54.1589 35.1843 53.7441 35.3488C53.1263 35.5933 52.504 35.8378 51.8863 36.0823C50.4433 36.6513 48.9959 37.2247 47.553 37.7937C47.1517 37.9493 47.3275 38.5983 47.7333 38.4383C49.3837 37.7848 51.034 37.1358 52.6844 36.4824C53.9064 35.9978 55.4666 35.6511 56.5533 34.8954C57.4957 34.2375 57.5227 32.8728 56.2331 32.735C55.8048 32.6861 55.8093 33.3573 56.2376 33.4018Z" fill="#46A358"/>
<path d="M46.0017 38.7186C44.189 40.4078 42.7596 42.3904 41.7495 44.6397C41.5737 45.0265 42.1553 45.3688 42.3357 44.9776C43.3232 42.7816 44.7075 40.8434 46.4841 39.1942C46.7953 38.8964 46.3173 38.4252 46.0017 38.7186Z" fill="#46A358"/>
<path d="M14.5502 41.6344C15.0688 42.3901 15.4025 43.2036 15.5603 44.1016C15.6324 44.5239 16.2862 44.346 16.2141 43.9237C16.0473 42.9769 15.682 42.0923 15.1364 41.2966C14.8929 40.9454 14.3067 41.2788 14.5502 41.6344Z" fill="#46A358"/>
</svg>
