<svg width="68" height="49" viewBox="0 0 68 49" fill="none" xmlns="http://www.w3.org/2000/svg">
<g clip-path="url(#clip0_42070_8416)">
<path d="M7.24949 2.77657C24.0222 1.02379 40.9389 3.71439 57.6705 1.28998C58.4521 1.17531 58.1189 -0.00822137 57.3413 0.106446C40.7291 2.51037 23.907 -0.192509 7.24949 1.54798C6.46783 1.62989 6.4596 2.85847 7.24949 2.77657Z" fill="#727272"/>
<path d="M7.08556 1.57225C5.4482 2.08006 5.6539 4.20961 6.52195 5.3399C7.94538 7.19097 11.1419 7.23192 13.2277 7.03535C14.0135 6.96163 14.0176 5.73305 13.2277 5.80677C11.8784 5.93372 10.4796 5.92143 9.16724 5.53648C8.48432 5.33581 7.76437 5.05323 7.37354 4.41437C7.17196 4.08265 6.78524 2.95236 7.41468 2.75988C8.17165 2.52235 7.84665 1.33472 7.08556 1.57225Z" fill="#727272"/>
<path d="M54.7831 1.67483C55.6511 1.62159 56.4904 1.47416 57.3543 1.3595C58.7243 1.17521 59.4277 1.54378 59.6664 2.97713C59.8638 4.16886 59.111 4.51696 58.0496 4.85277C57.5477 5.01248 57.0211 5.11077 56.5027 5.21315C55.1163 5.48344 53.7258 5.61859 52.3147 5.66773C51.5248 5.6964 51.5207 6.92498 52.3147 6.89631C54.7213 6.81031 61.4806 6.72021 61.2173 2.93208C61.1515 1.98607 60.2341 0.679679 59.3743 0.25377C58.0907 -0.385093 56.0913 0.364343 54.7789 0.446249C53.9932 0.495392 53.9891 1.72398 54.7831 1.67483Z" fill="#727272"/>
<path d="M9.05552 6.77331C8.88684 9.37382 5.92478 10.844 4.35324 12.6296C3.11904 14.0342 2.14814 15.6519 1.44465 17.376C-0.0692937 21.0699 -0.357272 25.2103 0.412042 29.1049C1.99593 37.0947 8.05993 43.6881 15.6338 46.518C16.3784 46.7965 16.6993 45.6088 15.9629 45.3344C8.09696 42.394 1.98358 35.0266 1.30066 26.5781C0.975658 22.5647 1.82725 18.3875 4.0776 15.0089C5.94535 12.2077 10.0552 10.414 10.2897 6.77331C10.3391 5.98702 9.10489 5.98702 9.05552 6.77331Z" fill="#727272"/>
<path d="M55.8234 6.24904C55.8234 9.48022 58.1808 11.5074 60.5792 13.3134C62.6403 14.8614 64.2365 16.3685 65.2527 18.797C66.1372 20.906 66.6267 23.183 66.7378 25.4641C67.141 33.8553 62.2454 41.6445 54.7209 45.3098C54.0092 45.6579 54.6304 46.7186 55.3421 46.3705C62.3318 42.9673 67.2603 36.0504 67.9185 28.3021C68.2518 24.3829 67.5689 20.0665 65.5695 16.6306C63.3685 12.8424 57.0576 11.106 57.0535 6.24904C57.0576 5.45865 55.8234 5.45865 55.8234 6.24904Z" fill="#727272"/>
<path d="M15.2675 45.617C14.4694 47.3821 15.9011 48.9055 17.6783 48.9874C19.6078 49.0816 21.6442 48.6352 23.5778 48.5533C25.8199 48.455 28.062 48.4509 30.3041 48.4837C38.672 48.6106 47.0357 49.2454 55.3665 48.1151C55.6504 48.0783 55.7943 47.767 55.819 47.5213C55.8848 46.8333 55.8273 46.3255 55.6257 45.6784C55.3912 44.9249 54.2022 45.2484 54.4367 46.006C54.6465 46.5016 54.6959 47.0094 54.5848 47.5213C54.737 47.3247 54.8852 47.1282 55.0374 46.9275C48.5414 47.808 41.9878 47.5868 35.4548 47.3821C32.2871 47.2838 29.1152 47.1937 25.9474 47.2469C24.4993 47.2715 23.0512 47.3288 21.603 47.4271C20.8132 47.4803 20.0274 47.5541 19.2416 47.6319C18.6616 47.6892 15.4444 48.1847 16.3289 46.2272C16.6539 45.5187 15.5925 44.8962 15.2675 45.617Z" fill="#727272"/>
<path d="M7.07985 13.2237C2.05257 19.3789 1.66174 27.9708 6.17478 34.5233C6.39693 34.8468 6.93175 34.5396 6.70959 34.212C2.36112 27.9012 2.66144 19.6042 7.52005 13.6537C7.76277 13.3548 7.33081 12.9166 7.07985 13.2237Z" fill="#727272"/>
<path d="M7.41406 36.8038C7.81723 37.3853 8.278 37.9218 8.79225 38.4092C9.08023 38.6794 9.51631 38.2494 9.22833 37.9751C8.75111 37.5246 8.32325 37.0331 7.94477 36.4967C7.72261 36.1731 7.1878 36.4762 7.41406 36.8038Z" fill="#727272"/>
<path d="M10.8657 40.3384C11.2648 40.3384 11.2648 39.7241 10.8657 39.7241C10.4666 39.7241 10.4666 40.3384 10.8657 40.3384Z" fill="#727272"/>
<path d="M54.6301 6.28223C54.3134 7.46167 54.0419 8.6493 54.5067 9.82874C54.9387 10.9222 55.815 11.9091 56.5596 12.8142C58.3451 14.9765 61.9983 17.1593 62.1711 20.1734C62.1916 20.5666 62.8087 20.5707 62.7882 20.1734C62.6606 17.9169 60.9904 16.4713 59.4517 15.0052C58.4603 14.0592 57.5264 13.0558 56.6707 11.9829C56.0947 11.258 55.4447 10.4922 55.1115 9.61988C54.7042 8.55921 54.9387 7.51491 55.2226 6.45014C55.3254 6.06518 54.7289 5.90137 54.6301 6.28223Z" fill="#727272"/>
<path d="M62.4395 21.5985C62.5259 22.3848 62.6122 23.1711 62.6986 23.9574C62.7398 24.3464 63.361 24.3505 63.3157 23.9574C63.2293 23.1711 63.143 22.3848 63.0566 21.5985C63.0154 21.2095 62.3983 21.2054 62.4395 21.5985Z" fill="#727272"/>
<path d="M62.4961 25.5747C62.5414 25.8041 62.5043 26.0211 62.4179 26.2341C62.3562 26.3897 62.4879 26.5699 62.6319 26.6108C62.8088 26.66 62.9486 26.5494 63.0104 26.3979C63.1379 26.0784 63.1543 25.7467 63.0885 25.4109C63.0186 25.026 62.4221 25.1898 62.4961 25.5747Z" fill="#727272"/>
<path d="M35.7428 21.0823C37.2156 18.2975 39.9884 16.4751 43.2096 16.6348C47.0439 16.8232 51.0756 20.1444 48.3891 24.0677C46.8135 26.3652 43.9831 27.8518 41.8973 29.6619C39.5811 31.6726 37.4624 33.8882 35.5083 36.2553C35.0064 36.8614 35.8744 37.7337 36.3804 37.1235C39.359 33.5155 42.7283 30.4645 46.4309 27.6142C48.9034 25.7058 51.6392 22.8105 50.1376 19.4564C48.8952 16.6798 45.4641 15.3161 42.572 15.398C39.1656 15.4963 36.2447 17.4948 34.6731 20.4598C34.307 21.1601 35.3725 21.7826 35.7428 21.0823Z" fill="#727272"/>
<path d="M35.4499 20.1285C32.8128 17.1758 29.5217 14.133 25.2514 14.3541C22.0836 14.518 19.356 16.9096 18.8994 20.0589C18.3358 23.8961 21.2155 27.2625 24.0213 29.4862C27.4688 32.2177 32.6689 33.1637 35.2483 36.8659C35.6968 37.5129 36.7664 36.8986 36.3138 36.2475C34.7053 33.9378 32.3644 32.7501 29.8796 31.5543C26.72 30.035 23.6058 28.1552 21.5735 25.223C19.3067 21.9591 19.681 16.9669 24.0748 15.7711C28.3739 14.604 31.9942 18.1095 34.5736 20.9967C35.1043 21.5905 35.9765 20.7182 35.4499 20.1285Z" fill="#727272"/>
</g>
<defs>
<clipPath id="clip0_42070_8416">
<rect width="68" height="49" fill="white"/>
</clipPath>
</defs>
</svg>
