<svg width="55" height="48" viewBox="0 0 55 48" fill="none" xmlns="http://www.w3.org/2000/svg">
<g clip-path="url(#clip0_42070_8275)">
<path d="M9.12947 1.3567C21.7024 3.02026 34.392 3.28175 47.0232 2.13663C47.8797 2.05999 47.8886 0.7075 47.0232 0.784141C34.392 1.92925 21.7024 1.66777 9.12947 0.00420306C8.27752 -0.108505 8.282 1.2485 9.12947 1.3567Z" fill="#727272"/>
<path d="M12.0318 47.0305C17.4664 47.7248 22.9368 48.0629 28.4161 47.9863C33.2364 47.9186 38.9265 48.1305 43.4463 46.2235C44.231 45.8899 43.8857 44.5825 43.0876 44.9206C38.4512 46.8772 32.51 46.6112 27.5507 46.6428C22.3583 46.6788 17.1794 46.3362 12.0273 45.678C11.1754 45.5698 11.1799 46.9223 12.0318 47.0305Z" fill="#727272"/>
<path d="M8.60522 0.3155C2.33219 6.16729 -0.591342 14.8909 0.0991845 23.3981C0.453416 27.7937 1.69098 32.0675 3.55182 36.0529C5.24675 39.6866 7.7443 44.8937 11.4929 46.7827C12.2641 47.1704 12.9457 46.0072 12.1699 45.615C8.68144 43.8568 6.30944 38.7939 4.71316 35.3721C2.85681 31.3823 1.64166 27.0498 1.39056 22.6452C0.942165 14.706 3.71324 6.72181 9.5603 1.27126C10.197 0.680673 9.24194 -0.275089 8.60522 0.3155Z" fill="#727272"/>
<path d="M46.5478 1.95166C53.1661 6.12185 53.7893 15.1159 53.6279 22.1985C53.4486 30.0971 52.4755 42.6121 43.0862 44.9204C42.2477 45.1278 42.6019 46.4307 43.4449 46.2233C53.2468 43.8159 54.6547 31.3955 54.9507 23.037C55.2242 15.2151 54.5337 5.387 47.2248 0.784012C46.4895 0.324164 45.8169 1.49182 46.5478 1.95166Z" fill="#727272"/>
<path d="M13.5789 1.36555C8.64204 6.7079 6.46285 15.6298 7.29686 22.7845C7.78113 26.9457 9.09044 31.0753 10.0635 35.1373C11.041 39.2083 12.0498 43.2478 14.2649 46.8409C14.7223 47.5803 15.8836 46.8995 15.4262 46.1601C13.3457 42.7879 12.3772 39.019 11.458 35.2004C10.5701 31.5216 9.53435 27.8384 8.8483 24.119C7.54796 17.0364 9.58367 7.67718 14.5295 2.32131C15.1169 1.68113 14.1663 0.725368 13.5789 1.36555Z" fill="#727272"/>
<path d="M20.2409 1.92896C16.5641 8.43896 14.6315 15.8326 14.7302 23.3254C14.7795 26.923 15.2907 30.5252 16.2682 33.9876C17.4833 38.284 19.3307 42.3595 20.1378 46.7731C20.2947 47.6297 21.5906 47.2645 21.4336 46.4125C20.7297 42.5489 19.2365 38.9512 18.0483 35.2274C16.8959 31.6117 16.2054 27.8833 16.0888 24.0828C15.8556 16.5674 17.712 9.14226 21.4023 2.60972C21.8327 1.85232 20.6714 1.17157 20.2409 1.92896Z" fill="#727272"/>
<path d="M24.204 3.22318C25.482 10.734 23.9305 18.2584 24.0606 25.8008C24.1189 29.2452 24.8856 32.4506 25.334 35.8408C25.8003 39.3618 25.0022 42.982 24.5672 46.4759C24.4596 47.337 25.8048 47.328 25.9124 46.4759C26.3519 42.9504 27.1455 39.3032 26.6792 35.7507C26.2039 32.117 25.4013 28.6726 25.3968 24.9758C25.3878 17.5776 26.7509 10.2336 25.4999 2.86703C25.3519 2.01045 24.0561 2.37111 24.204 3.22318Z" fill="#727272"/>
<path d="M29.2501 2.59652C31.6131 9.38153 31.9001 16.5407 32.1377 23.6594C32.3978 31.3911 32.0122 39.0011 30.5773 46.6112C30.4159 47.4632 31.7118 47.8284 31.8732 46.9718C33.3305 39.2446 33.7475 31.5083 33.4829 23.6594C33.2408 16.4235 32.9448 9.12906 30.5459 2.23585C30.2634 1.42436 28.9631 1.776 29.2501 2.59652Z" fill="#727272"/>
<path d="M34.9081 2.62788C35.4059 4.1562 36.482 5.17507 37.3071 6.51855C38.2487 8.05138 38.7643 9.78708 39.0423 11.5543C39.6477 15.4135 39.3607 19.4529 39.3517 23.3436C39.3428 27.5769 39.6656 32.0536 38.576 36.1878C37.6164 39.8169 35.4148 42.9457 34.6795 46.6515C34.5091 47.5036 35.8049 47.8643 35.9753 47.0122C36.7645 43.0449 39.2038 39.6862 40.0647 35.7369C40.948 31.6975 40.6879 27.4506 40.6969 23.3436C40.7059 19.5476 40.9346 15.6659 40.4368 11.8925C40.2171 10.2244 39.8405 8.57434 39.123 7.05053C38.3249 5.3509 36.7869 4.05701 36.2085 2.27172C35.935 1.4467 34.6346 1.79835 34.9081 2.62788Z" fill="#727272"/>
<path d="M41.4498 2.41635C44.1223 4.941 45.4091 8.97143 46.3732 12.4518C47.3776 16.0765 47.0413 19.9447 46.8171 23.655C46.3642 31.1839 45.0997 38.7038 41.5081 45.4121C41.0956 46.1785 42.2569 46.8638 42.6695 46.0929C46.4987 38.9382 47.7767 30.8954 48.2026 22.8706C48.4179 18.8311 48.5927 14.8863 47.3327 10.9957C46.2387 7.61894 45.0325 3.94917 42.4004 1.45608C41.7727 0.865487 40.8176 1.82125 41.4498 2.41635Z" fill="#727272"/>
<path d="M13.4697 5.79744C13.3307 6.1536 13.1783 6.50524 13.0124 6.85238C12.8016 7.28969 13.0482 7.8893 13.5953 7.87126C13.9854 7.85774 14.2948 7.68191 14.5728 7.41592C14.6625 7.33027 14.7521 7.2401 14.8373 7.15444C14.9494 7.04173 14.8015 7.22207 14.8867 7.11838C14.8687 7.14542 14.7746 7.13641 14.8598 7.14543C14.6445 6.8614 14.4293 6.57287 14.2096 6.28885C14.1513 6.5909 14.0885 6.89296 14.0302 7.19952C13.9585 7.55568 14.1334 7.92987 14.501 8.03356C14.8329 8.12373 15.2588 7.92085 15.3306 7.56019C15.3889 7.25813 15.4516 6.95608 15.5099 6.64951C15.5996 6.18966 15.3171 5.83801 14.8598 5.79293C14.4876 5.75686 14.1513 5.95523 13.8867 6.19868C13.7926 6.28434 13.7119 6.3745 13.6177 6.46016C13.5863 6.48721 13.5594 6.51426 13.528 6.54131C13.5415 6.52779 13.5549 6.51877 13.5684 6.50524C13.5011 6.54131 13.5011 6.54582 13.5774 6.51426C13.5011 6.53229 13.5056 6.5368 13.5908 6.51426C13.7836 6.85238 13.9764 7.19051 14.1737 7.53314C14.3889 7.08231 14.5862 6.62246 14.7656 6.1581C14.8956 5.81547 14.6221 5.41423 14.2948 5.32407C13.9181 5.22038 13.6043 5.45481 13.4697 5.79744Z" fill="#727272"/>
<path d="M10.1394 13.8897C10.0767 14.2684 10.0139 14.6471 9.9511 15.0213C9.90178 15.3233 9.98249 15.6209 10.2605 15.7832C10.5071 15.9274 10.8793 15.9004 11.0766 15.6795C11.2066 15.5307 11.3366 15.3819 11.4667 15.2331C11.5519 15.134 11.6729 14.9491 11.7761 14.895C11.664 14.9266 11.5519 14.9581 11.4353 14.9852C11.4577 14.9807 11.4846 14.9807 11.507 14.9762C11.3949 14.9446 11.2828 14.9131 11.1663 14.886C11.1842 14.8995 11.2021 14.9131 11.2201 14.9266C11.108 14.7327 10.9959 14.5389 10.8882 14.3405C10.9241 14.7282 10.8165 15.161 10.7717 15.5532C10.7089 16.1168 11.377 16.3242 11.785 16.1393C12.3141 15.8914 12.6684 15.436 12.8567 14.8905C12.48 14.9897 12.1079 15.0889 11.7312 15.1881C11.7178 15.1024 11.7043 15.0167 11.6909 14.9311C11.4712 15.7741 12.7715 16.1348 12.9867 15.2918C13.0854 14.9085 12.9957 14.4893 12.6818 14.2323C12.2783 13.9032 11.7357 14.0204 11.5564 14.5299C11.4756 14.7553 11.3097 14.8725 11.1035 14.9717C11.4398 15.1655 11.7761 15.3594 12.1168 15.5577C12.1841 14.9536 12.5069 13.8807 11.6819 13.6507C10.9869 13.4569 10.4981 14.2864 10.1215 14.7237C10.4981 14.9446 10.8703 15.161 11.247 15.3819C11.3097 15.0032 11.3725 14.6245 11.4353 14.2503C11.4936 13.8897 11.3411 13.52 10.9645 13.4163C10.6461 13.3306 10.1977 13.529 10.1394 13.8897Z" fill="#727272"/>
<path d="M9.56047 22.0365C9.60531 22.5684 9.65463 23.1004 9.69947 23.6279C9.76673 24.3808 10.7756 24.5566 11.0222 23.8082C11.1568 23.3935 11.3451 23.0193 11.5827 22.6496C11.1747 22.5955 10.7622 22.5414 10.3541 22.4873C10.5111 22.8795 10.6187 23.2807 10.677 23.7045C10.7442 24.1824 11.3227 24.2636 11.6634 24.1103C11.8338 24.0336 11.9728 23.8849 12.0625 23.7226C12.1029 23.6504 12.1343 23.5648 12.1612 23.4881C12.1746 23.4476 12.1836 23.407 12.197 23.3664C12.2194 23.2988 12.2105 23.3033 12.1791 23.3799C12.0804 23.4385 11.9818 23.4971 11.8832 23.5558C11.9056 23.5467 11.9325 23.5422 11.9549 23.5332C11.8338 23.5332 11.7172 23.5332 11.5962 23.5332C11.5872 23.5287 11.5782 23.5242 11.5738 23.5152C11.493 23.434 11.4123 23.3529 11.3316 23.2717C11.3451 23.2898 11.354 23.3078 11.3675 23.3258C11.3451 23.15 11.3227 22.9787 11.3002 22.8029C11.2958 22.8254 11.2958 22.8479 11.2913 22.866C11.2419 23.2266 11.3765 23.5918 11.7621 23.7C12.076 23.7857 12.5423 23.5918 12.5916 23.2266C12.632 22.9336 12.6095 22.6676 12.3943 22.4467C12.215 22.2664 11.9414 22.1807 11.6903 22.2078C11.4303 22.2393 11.2016 22.3926 11.0626 22.6135C11.0043 22.7082 10.9236 22.8389 10.9191 22.9471C10.9146 23.1049 10.8474 22.9922 10.9908 22.9291C11.3182 23.0643 11.65 23.1996 11.9773 23.3348C11.919 22.9156 11.8114 22.5143 11.6545 22.1176C11.4392 21.5856 10.7577 21.4323 10.4259 21.9553C10.1299 22.4197 9.90125 22.9156 9.73086 23.434C10.1703 23.4926 10.6097 23.5558 11.0536 23.6144C11.0088 23.0824 10.9595 22.5504 10.9146 22.0229C10.8832 21.6578 10.6276 21.3467 10.242 21.3467C9.89677 21.3602 9.52908 21.6713 9.56047 22.0365Z" fill="#727272"/>
<path d="M11.1791 31.5759C11.2239 32.3559 11.614 33.0366 12.2911 33.4334C12.7395 33.6903 13.2955 33.3612 13.3044 32.8473C13.3089 32.4505 13.3986 32.0854 13.5511 31.7202C13.1744 31.8194 12.8022 31.9186 12.4256 32.0177C12.6094 32.2432 12.8067 32.4415 13.0264 32.6264C13.3852 32.9284 14.0398 32.8698 14.1519 32.3288C14.1788 32.2071 14.2102 32.1034 14.2506 31.9907C13.8739 32.0899 13.5017 32.1891 13.1251 32.2882C13.1654 32.2657 13.1879 32.2928 13.1834 32.3649C13.3269 32.703 13.8201 32.7751 14.1026 32.6083C14.4479 32.4055 14.4882 32.0223 14.3447 31.6841C14.2864 31.5489 14.1923 31.4272 14.0757 31.3325C13.6587 31.0034 13.1475 31.1251 12.9502 31.63C12.9054 31.7427 12.874 31.8509 12.8516 31.9682C13.2282 31.869 13.6004 31.7698 13.977 31.6706C13.7573 31.4858 13.56 31.2829 13.3762 31.062C13.0175 30.6202 12.4256 30.9493 12.2507 31.3595C12.0534 31.8329 11.9637 32.3333 11.9548 32.8473C12.2911 32.6534 12.6274 32.4596 12.9682 32.2612C12.7081 32.1124 12.5377 31.878 12.5198 31.5714C12.4749 30.7148 11.1297 30.7058 11.1791 31.5759Z" fill="#727272"/>
<path d="M13.9502 40.8493C14.1071 41.2551 14.2954 41.6292 14.551 41.9854C14.9501 42.5354 15.7437 42.3325 15.8065 41.6428C15.811 41.6022 15.8827 41.1018 15.8558 41.0792C15.663 41.201 15.4747 41.3227 15.2819 41.4444C15.3267 41.5075 15.3671 41.5661 15.4164 41.6247C15.5868 41.8411 15.7976 42.026 16.0711 42.1026C16.2818 42.1567 16.5284 42.1297 16.7123 42.0125C16.8333 41.9313 16.9185 41.8366 16.9813 41.7059C17.0037 41.6518 17.0262 41.5977 17.0486 41.5436C17.1517 41.219 16.9544 41.1649 16.4612 41.3813C16.7302 42.2018 18.0306 41.8501 17.757 41.0206C17.5687 40.4526 17.0217 40.0829 16.4253 40.3083C16.1832 40.403 15.9724 40.5833 15.8558 40.8177C15.82 40.8899 15.6899 41.201 15.7348 41.2911C15.9948 41.1423 16.2504 40.9891 16.5105 40.8403C16.4746 40.7952 16.4388 40.7546 16.4074 40.7095C16.1921 40.2722 15.5689 40.0243 15.1205 40.1866C14.4882 40.412 14.5151 41.0882 14.4658 41.6473C14.8828 41.5346 15.2998 41.4219 15.7213 41.3046C15.5375 41.0522 15.3716 40.7862 15.255 40.4931C14.9322 39.6907 13.6318 40.0378 13.9502 40.8493Z" fill="#727272"/>
<path d="M21.1379 5.98245C20.6537 6.34762 20.2501 6.78042 19.9856 7.33494C19.6403 8.05627 20.4429 8.62432 21.0438 8.15545C21.1873 8.04274 21.3307 7.93004 21.4742 7.81733C21.537 7.76774 21.5998 7.71815 21.667 7.66855C21.6984 7.6415 21.7298 7.61896 21.7612 7.59191C21.8733 7.51076 21.815 7.52429 21.5863 7.62798C21.4742 7.59642 21.3621 7.56486 21.2456 7.53781C21.259 7.54683 21.2725 7.55585 21.2859 7.56486C21.2052 7.48371 21.1245 7.40256 21.0438 7.32141C21.0303 7.26281 21.0124 7.20871 20.9989 7.1501C21.0034 7.08698 21.0034 7.07797 20.99 7.13206C20.9586 7.15461 20.9496 7.30789 20.9496 7.33043C20.9182 7.53781 20.9362 7.74069 21.0438 7.93004C21.1424 8.10135 21.3173 8.25463 21.5101 8.30423C21.5908 8.32677 21.6939 8.33578 21.7791 8.33578C21.8599 8.33578 21.9316 8.32226 22.0033 8.29521C22.0975 8.26816 22.0661 8.25914 21.9047 8.26816C21.806 8.20955 21.7074 8.15094 21.6088 8.09234C21.6222 8.10586 21.6357 8.11939 21.6491 8.13291C21.5908 8.03373 21.5325 7.93454 21.4742 7.83536C21.4787 7.84889 21.4832 7.86692 21.4877 7.88044C21.5101 7.70462 21.5325 7.5333 21.5549 7.35748C21.546 7.37101 21.5415 7.38453 21.5325 7.39806C21.1245 8.16447 22.2858 8.84973 22.6939 8.07881C22.8687 7.75421 22.8284 7.38904 22.5549 7.13206C22.4114 6.99682 22.2186 6.91567 22.0213 6.91116C21.9092 6.90665 21.7791 6.97878 21.6805 6.96977C21.7926 7.00132 21.9047 7.03288 22.0213 7.05993C22.0033 7.04641 21.9854 7.03288 21.972 7.02387C22.0527 7.10502 22.1334 7.18617 22.2141 7.26731C22.2051 7.24928 22.1961 7.23125 22.1872 7.21321C22.2186 7.32592 22.25 7.43863 22.2769 7.55585C22.2679 7.47019 22.2813 7.51527 22.3127 7.38904C22.3486 7.23125 22.3531 7.05993 22.3172 6.89763C22.241 6.57303 21.9989 6.3386 21.676 6.27999C21.3397 6.21688 21.111 6.3927 20.8554 6.59107C20.5999 6.78943 20.3443 6.99231 20.0887 7.19067C20.4429 7.46568 20.7927 7.73618 21.1469 8.01119C21.3083 7.67757 21.5146 7.37101 21.815 7.14559C22.1065 6.92919 22.2544 6.55951 22.0571 6.22139C21.8912 5.93736 21.4339 5.76605 21.1379 5.98245Z" fill="#727272"/>
<path d="M18.5051 13.5922C18.393 14.1332 18.2853 14.6742 18.1732 15.2197C18.0342 15.9095 18.7786 16.3062 19.2987 15.8779C19.4512 15.7517 19.5857 15.5939 19.6843 15.4226C19.7516 15.3054 19.8323 15.0664 19.8682 15.0078C19.7875 15.089 19.7067 15.1701 19.626 15.2513C19.6485 15.2377 19.6664 15.2242 19.6888 15.2062C19.5767 15.2377 19.4646 15.2693 19.348 15.2964C19.3749 15.2918 19.4018 15.2918 19.4287 15.2873C19.3166 15.2558 19.2045 15.2242 19.088 15.1972C18.9803 15.1476 18.9759 14.9718 19.0073 15.2017C19.0162 15.2603 19.0297 15.3099 19.0476 15.364C19.1104 15.5669 19.2225 15.7472 19.3929 15.8734C19.5498 15.9906 19.7337 16.0538 19.9309 16.0492C20.052 16.0447 20.1641 16.0132 20.2717 15.9591C20.33 15.9365 20.3793 15.905 20.4242 15.8644C20.5408 15.7833 20.5094 15.7878 20.3345 15.8689C20.2224 15.8374 20.1103 15.8058 19.9937 15.7787C20.0117 15.7878 20.0161 15.7968 20.0296 15.8328C20.3166 16.6488 21.6169 16.2972 21.3254 15.4722C21.1999 15.116 21.0161 14.7869 20.6708 14.6111C20.4914 14.5164 20.2672 14.4894 20.0699 14.5345C19.8727 14.5795 19.7561 14.7103 19.5857 14.7914C19.6978 14.7599 19.8099 14.7283 19.9265 14.7013C19.904 14.7013 19.8771 14.7013 19.8547 14.7013C19.9668 14.7328 20.0789 14.7644 20.1955 14.7914C20.3166 15.0033 20.3524 15.0349 20.3031 14.8861C20.2941 14.8275 20.2852 14.7689 20.2762 14.7103C20.2448 14.5931 20.1955 14.4713 20.1327 14.3722C19.9668 14.1107 19.6933 13.9394 19.3839 13.9439C19.079 13.9484 18.801 14.1242 18.6575 14.3902C18.5364 14.6156 18.5454 14.7508 18.3391 14.9222C18.7158 15.1431 19.088 15.3595 19.4646 15.5804C19.5767 15.0394 19.6843 14.4984 19.7964 13.9574C19.9758 13.1008 18.6799 12.7401 18.5051 13.5922Z" fill="#727272"/>
<path d="M17.9859 20.5034C17.8469 21.2293 17.7572 21.9596 17.7348 22.6945C17.7168 23.2084 18.3177 23.533 18.7481 23.2806C18.9454 23.1633 19.0889 23.0055 19.1965 22.8027C19.2369 22.726 19.3535 22.5502 19.331 22.4826C19.3266 22.4736 19.2862 22.5322 19.3041 22.5232C19.192 22.5547 19.0799 22.5863 18.9634 22.6133C18.9544 22.6178 18.9409 22.6178 18.932 22.6223C18.8513 22.5412 18.7706 22.46 18.6898 22.3789C18.7661 22.4781 18.7571 22.4691 18.7661 22.5727C18.8154 23.1273 19.479 23.497 19.914 23.0506C19.9633 22.9965 20.0126 22.9469 20.0664 22.8973C19.9723 22.9424 19.8736 22.9334 19.7794 22.8793C19.7212 22.7801 19.6629 22.6809 19.6046 22.5818C19.6135 22.6088 19.6225 22.6359 19.636 22.6629C19.7615 23.0055 20.0933 23.24 20.4655 23.1363C20.7928 23.0461 21.0618 22.6494 20.9363 22.3022C20.5866 21.3465 19.5687 21.4682 18.9634 22.0949C19.3445 22.2527 19.7301 22.415 20.1113 22.5727C20.0574 21.919 19.7346 21.2112 18.9634 21.2608C18.6495 21.2789 18.3715 21.4637 18.2056 21.7297C18.1473 21.8244 18.1069 21.9326 18.0621 22.0363C18.0128 22.149 17.9276 22.1895 18.0666 22.1084C18.4029 22.3022 18.7392 22.4961 19.0799 22.6945C19.0979 22.0768 19.1651 21.4682 19.2817 20.8596C19.4476 20.012 18.1518 19.6514 17.9859 20.5034Z" fill="#727272"/>
<path d="M18.6529 28.2265C18.8054 28.8306 18.9892 29.4212 19.2045 30.0028C19.3793 30.4761 19.9398 30.6745 20.3299 30.3003C20.5003 30.1335 20.6169 29.9396 20.6752 29.7052C20.6976 29.6105 20.7155 29.4978 20.72 29.4031C20.7335 29.1146 20.7021 29.3536 20.729 29.34C20.6169 29.3716 20.5048 29.4031 20.3882 29.4302C20.4196 29.4302 20.4465 29.4257 20.4779 29.4257C20.3658 29.3941 20.2537 29.3626 20.1371 29.3355C20.0474 29.2949 20.0743 29.2544 20.1461 29.3806C20.182 29.4437 20.2133 29.4978 20.2582 29.5564C20.3972 29.7368 20.5676 29.8585 20.7963 29.89C20.998 29.9171 21.1908 29.8675 21.3612 29.7503C21.4554 29.6827 21.5406 29.606 21.6034 29.5068C21.6303 29.4527 21.6572 29.3986 21.6796 29.3445C21.7693 29.1687 21.693 29.2138 21.4509 29.4843C21.3298 29.4843 21.2133 29.4843 21.0922 29.4843C21.0384 29.4392 20.9891 29.3896 20.9353 29.3445C20.9039 29.2318 20.8725 29.1191 20.8456 29.0019C20.8456 29.029 20.8456 29.056 20.8456 29.0831C20.8321 29.9532 22.1773 29.9532 22.1908 29.0831C22.1997 28.6277 21.8859 28.2716 21.4509 28.1814C21.2177 28.1318 20.9846 28.1814 20.7918 28.3211C20.6976 28.3888 20.6214 28.4654 20.5586 28.5601C20.5452 28.5871 20.5317 28.6187 20.5138 28.6457C20.3972 28.8712 20.4286 28.8667 20.6124 28.6322C20.7245 28.6007 20.8366 28.5691 20.9532 28.5421C20.9308 28.5466 20.9084 28.5466 20.8859 28.5511C20.998 28.5826 21.1101 28.6142 21.2267 28.6412C21.4195 28.7359 21.3209 28.7044 21.2491 28.5781C21.1953 28.4789 21.1236 28.3843 21.0429 28.3121C20.7873 28.0822 20.451 28.0236 20.1326 28.1363C19.877 28.2265 19.6842 28.4248 19.5542 28.6548C19.4825 28.7855 19.4466 28.9162 19.4197 29.0605C19.4062 29.1236 19.4197 29.304 19.3793 29.3445C19.756 29.4437 20.1281 29.5429 20.5048 29.6421C20.2896 29.0605 20.1057 28.4654 19.9533 27.8658C19.7336 27.0273 18.4377 27.3834 18.6529 28.2265Z" fill="#727272"/>
<path d="M19.3317 34.6867C19.5738 35.4035 19.8832 36.0932 20.2644 36.7424C20.5379 37.2068 21.1432 37.1527 21.4257 36.7424C21.5019 36.6297 21.5557 36.5125 21.5916 36.3818C21.5961 36.3412 21.6006 36.3051 21.6095 36.2646C21.6813 36.0031 21.6185 36.0121 21.4123 36.2961C21.2912 36.2961 21.1746 36.2961 21.0535 36.2961C20.8652 36.2375 20.9504 36.251 21.0491 36.3592C21.1208 36.4359 21.2105 36.517 21.3046 36.5711C21.4974 36.6793 21.7261 36.7199 21.9458 36.7019C22.448 36.6658 22.7933 36.3322 22.9592 35.8768C23.2596 35.0608 21.9593 34.7047 21.6634 35.5162C21.7485 35.2908 21.9593 35.417 21.9234 35.3088C21.8965 35.2322 21.7396 35.1285 21.6678 35.0879C21.4481 34.9617 21.1836 34.9346 20.9459 35.0158C20.7262 35.0879 20.5513 35.2547 20.4392 35.4576C20.3406 35.6379 20.3675 35.9084 20.2599 36.0617C20.6455 36.0617 21.0356 36.0617 21.4212 36.0617C21.0939 35.5072 20.8293 34.9391 20.6231 34.3305C20.354 33.51 19.0537 33.8616 19.3317 34.6867Z" fill="#727272"/>
<path d="M21.1016 42.4003C21.1061 42.7745 21.1599 43.1487 21.2765 43.5003C21.3617 43.7573 21.5635 43.9466 21.837 43.9827C22.0836 44.0143 22.393 43.9016 22.5051 43.6581C22.5813 43.4958 22.6575 43.3335 22.7338 43.1757C22.7696 43.0991 22.8055 43.027 22.8369 42.9503C22.8548 42.9142 22.8728 42.8737 22.8907 42.8376C22.9266 42.77 22.9266 42.77 22.8907 42.8376C22.7921 42.8962 22.6934 42.9548 22.5948 43.0134C22.6082 43.0089 22.6262 42.9999 22.6396 42.9954C22.5185 42.9954 22.402 42.9954 22.2809 42.9954C22.2585 42.9864 22.2316 42.9729 22.2091 42.9638C22.1284 42.8827 22.0477 42.8015 21.967 42.7204C21.8998 42.6077 21.9625 42.7024 21.9894 42.779C22.0119 42.8511 22.0388 42.9188 22.0612 42.9909C22.1105 43.1306 22.1598 43.2749 22.2047 43.4147C22.3212 43.7618 22.6665 43.9872 23.0342 43.888C23.366 43.7979 23.6216 43.4011 23.505 43.054C23.3122 42.495 23.1508 41.5753 22.3706 41.679C21.7652 41.7601 21.5635 42.4995 21.3393 42.9774C21.7473 43.0315 22.1598 43.0856 22.5679 43.1397C22.4827 42.8737 22.4423 42.6573 22.4378 42.3958C22.4333 42.0441 22.1329 41.7015 21.7652 41.7195C21.411 41.7376 21.0971 42.0216 21.1016 42.4003Z" fill="#727272"/>
<path d="M27.2808 43.2209C27.2449 43.5274 27.209 43.8385 27.1732 44.1451C27.1373 44.4336 27.4063 44.7267 27.6664 44.7988C27.9713 44.8844 28.2538 44.7357 28.4242 44.4877C28.5452 44.3119 28.6663 44.1406 28.7874 43.9648C28.8412 43.8836 28.8995 43.807 28.9533 43.7258C28.9757 43.6943 28.9981 43.6627 29.0205 43.6311C29.1192 43.4959 29.1057 43.5049 28.9847 43.6582C28.8726 43.6897 28.7605 43.7213 28.6439 43.7484C28.6663 43.7484 28.6842 43.7484 28.7067 43.7484C28.5946 43.7168 28.4825 43.6852 28.3659 43.6582C28.2314 43.4238 28.1865 43.3787 28.2314 43.5229C28.2448 43.577 28.2538 43.6356 28.2672 43.6897C28.2897 43.8025 28.3121 43.9107 28.339 44.0234C28.3883 44.2578 28.4107 44.5328 28.5318 44.7447C28.6484 44.9431 28.8412 45.1144 29.0654 45.1775C29.4106 45.2722 29.6931 45.0963 29.8949 44.8258C30.1146 44.5328 29.9397 44.0684 29.6528 43.9016C29.3075 43.6988 28.9533 43.852 28.7336 44.1451C28.7246 44.1586 28.7156 44.1721 28.7067 44.1812C28.8995 44.0684 29.0923 43.9557 29.2896 43.8475C29.2761 43.8475 29.2627 43.852 29.2492 43.852C29.3613 43.8836 29.4734 43.9152 29.59 43.9422C29.7066 44.0008 29.7783 44.3299 29.7111 43.9963C29.6931 43.9016 29.6707 43.8115 29.6528 43.7168C29.6169 43.55 29.5855 43.3832 29.5496 43.2164C29.4689 42.8647 29.2582 42.5221 28.8905 42.4184C28.4825 42.3057 28.1596 42.5401 27.9309 42.8467C27.7023 43.1578 27.487 43.4779 27.2673 43.7934C27.6843 43.9061 28.1013 44.0189 28.5228 44.1361C28.5587 43.8295 28.5946 43.5184 28.6304 43.2119C28.6708 42.8467 28.2897 42.5356 27.9578 42.5356C27.5588 42.5446 27.3256 42.8602 27.2808 43.2209Z" fill="#727272"/>
<path d="M27.926 30.8727C27.7601 31.594 27.6794 32.3334 27.6929 33.0727C27.7018 33.7084 28.6345 34.0375 28.9484 33.4154C29.0829 33.1449 29.2174 32.8789 29.3519 32.6084C29.4506 32.41 29.5223 32.162 29.7017 32.0223C29.603 32.0809 29.5044 32.1395 29.4057 32.1981C29.4057 32.1936 29.4057 32.1891 29.4102 32.1846C29.195 32.0178 28.9797 31.8555 28.76 31.6887C28.8452 32.0088 28.9304 32.3288 29.0156 32.6489C29.1232 33.0502 29.6389 33.2936 30.0021 33.0547C30.0649 33.0141 30.1276 32.969 30.1904 32.9285C30.9078 32.4506 30.2352 31.2784 29.5133 31.7608C29.4506 31.8014 29.3878 31.8465 29.325 31.887C29.6523 32.0223 29.9841 32.1575 30.3115 32.2928C30.2263 31.9727 30.1411 31.6526 30.0559 31.3325C29.9797 31.0485 29.7017 30.8321 29.4057 30.8366C28.4596 30.8546 28.1368 32.0358 27.787 32.7391C28.204 32.8518 28.621 32.9645 29.0425 33.0817C29.0335 32.4551 29.0874 31.851 29.2264 31.2378C29.4147 30.3858 28.1188 30.0251 27.926 30.8727Z" fill="#727272"/>
<path d="M26.6439 20.7558C26.6753 21.2878 26.7022 21.8153 26.7336 22.3472C26.7695 23.0145 27.6214 23.2714 27.9891 22.6899C28.2492 22.2751 28.5092 21.8648 28.7693 21.4501C28.3837 21.4501 27.9936 21.4501 27.608 21.4501C27.7021 21.6124 27.7604 21.7612 27.7694 21.9505C27.8008 22.5456 28.4778 22.8296 28.9173 22.4284C29.258 22.1218 29.4778 21.7521 29.6437 21.3238C29.3163 21.4591 28.9845 21.5943 28.6572 21.7296C28.6572 21.7386 28.6572 21.7476 28.6527 21.7521C28.5944 21.653 28.5361 21.5538 28.4778 21.4546C28.4913 21.4816 28.5003 21.5132 28.5137 21.5402C28.6527 21.8784 28.9576 22.1173 29.3432 22.0136C29.6571 21.928 29.9531 21.5222 29.814 21.1796C29.6975 20.9046 29.5764 20.7378 29.3343 20.5574C28.9531 20.2734 28.4868 20.598 28.3478 20.9632C28.2671 21.1706 28.1281 21.3238 27.9667 21.4726C28.3478 21.6304 28.7334 21.7927 29.1146 21.9505C29.0921 21.5267 28.9845 21.1345 28.7693 20.7693C28.5047 20.323 27.877 20.341 27.608 20.7693C27.3479 21.1841 27.0878 21.5943 26.8277 22.0091C27.2448 22.1218 27.6618 22.2345 28.0832 22.3517C28.0519 21.8198 28.025 21.2923 27.9936 20.7603C27.9398 19.8902 26.5946 19.8857 26.6439 20.7558Z" fill="#727272"/>
<path d="M27.0067 11.8162C26.9663 12.1588 26.9484 12.5014 26.9573 12.8441C26.9708 13.3129 27.5358 13.7457 27.9707 13.4302C28.1949 13.2679 28.3339 13.083 28.4101 12.817C28.4281 12.7539 28.446 12.6818 28.455 12.6187C28.4639 12.56 28.4998 12.5555 28.4505 12.6006C28.2173 12.817 27.9707 13.1281 27.5985 12.6773C27.6389 12.7269 27.6254 12.7223 27.5985 12.6637C27.6299 12.7314 27.6524 12.808 27.6837 12.8756C27.7375 12.9928 27.8183 13.0965 27.9079 13.1867C28.1859 13.4617 28.5985 13.5158 28.9348 13.322C29.2531 13.1416 29.3562 12.7088 29.1769 12.3977C28.9886 12.0777 28.576 11.974 28.2577 12.1543C28.2442 12.1633 28.2263 12.1723 28.2128 12.1813C28.3249 12.1498 28.437 12.1182 28.5536 12.0912C28.5895 12.0867 28.9123 12.267 28.8854 12.276C28.9034 12.3121 28.9034 12.3121 28.8899 12.2805C28.8765 12.2445 28.863 12.2084 28.8451 12.1723C28.7913 12.0416 28.7285 11.9199 28.6299 11.8117C28.4101 11.5817 28.0694 11.469 27.76 11.5682C27.4685 11.6584 27.2757 11.8928 27.1815 12.1768C27.1591 12.24 27.1502 12.3031 27.1322 12.3707C27.1232 12.4023 27.1143 12.4293 27.1098 12.4609C27.0919 12.5195 27.0919 12.5195 27.1143 12.4609C27.1412 12.3752 27.1995 12.3076 27.2892 12.2625C27.6254 12.4564 27.9617 12.6502 28.3025 12.8486C28.2936 12.5059 28.3115 12.1633 28.3518 11.8207C28.3967 11.469 28.0111 11.1309 27.6793 11.1444C27.2802 11.1625 27.056 11.442 27.0067 11.8162Z" fill="#727272"/>
<path d="M26.5955 4.88206C26.4699 5.37797 26.5327 5.88741 26.7973 6.32472C27.1111 6.8567 27.8331 6.6944 28.0259 6.16242C28.0976 5.96405 27.99 6.28414 28.0573 6.08127C28.0842 6.00463 28.1066 6.04069 28.0393 6.07225C27.8331 6.18045 27.5551 6.10832 27.4923 5.83782C27.5775 6.19398 27.9765 6.40587 28.3218 6.31119C28.6805 6.21201 28.8778 5.83782 28.7926 5.47716C28.6716 4.96321 28.1155 4.6882 27.6178 4.80542C27.1291 4.92714 26.8914 5.35543 26.73 5.79725C27.138 5.74315 27.5506 5.68905 27.9586 5.63495C27.8913 5.51773 27.8824 5.52675 27.8689 5.38699C27.8779 5.45912 27.8734 5.36896 27.8734 5.34641C27.8824 5.14805 27.8465 5.42756 27.8913 5.23371C27.9765 4.89107 27.7792 4.48533 27.4205 4.39967C27.0753 4.32754 26.6897 4.51238 26.5955 4.88206Z" fill="#727272"/>
<path d="M7.36734 3.28655C7.17004 3.54803 6.99068 3.82303 6.83375 4.11157C6.56919 4.58494 7.01759 5.3243 7.59153 5.10339C7.79779 5.02675 7.99957 4.9456 8.20583 4.86896C7.93231 4.71117 7.65431 4.55338 7.3763 4.39559C7.41218 4.49928 7.43011 4.56691 7.42563 4.6706C7.42114 5.01323 7.7395 5.3784 8.09822 5.34684C8.43451 5.31979 8.72149 5.23864 9.02191 5.09438C9.34924 4.93659 9.43443 4.46321 9.26404 4.17017C9.06675 3.83205 8.67216 3.76894 8.34483 3.92673C8.27758 3.95828 8.15202 3.98984 8.09822 3.99435C8.32241 4.21977 8.54661 4.44518 8.77081 4.6706C8.77529 4.4542 8.74391 4.2378 8.67216 4.03493C8.56006 3.71484 8.20583 3.4263 7.84263 3.56155C7.63637 3.63819 7.4346 3.71934 7.22833 3.79599C7.47943 4.12509 7.73502 4.45871 7.98612 4.78781C8.14754 4.49928 8.32241 4.22427 8.51971 3.96279C8.73942 3.66975 8.56455 3.2054 8.27758 3.03859C7.94128 2.84473 7.58705 2.99351 7.36734 3.28655Z" fill="#727272"/>
<path d="M3.56096 10.8783C3.30538 11.4419 3.08567 12.0189 2.90631 12.614C2.79421 12.9837 3.04083 13.3263 3.37712 13.4481C3.66409 13.5518 3.97349 13.4886 4.22459 13.3263C4.3322 13.2542 4.40394 13.1821 4.48465 13.0874C4.79405 12.7177 4.36807 13.1956 4.11697 12.8845C4.05868 12.7853 4.00039 12.6862 3.9421 12.587C3.90623 12.4607 3.93313 12.7222 3.93313 12.7177C3.94658 12.8214 3.97349 12.9296 4.02729 13.0243C4.13042 13.2001 4.31875 13.3444 4.51156 13.3985C4.87476 13.4977 5.34109 13.3579 5.49802 12.9882C5.64151 12.6546 5.59667 12.2624 5.25589 12.064C4.9734 11.8972 4.48017 11.9693 4.33668 12.3075C4.35014 12.2894 4.36359 12.2714 4.38152 12.2579C4.48017 12.1993 4.57882 12.1407 4.67746 12.082C4.81198 12.1226 4.9465 12.1632 5.08102 12.2038C5.13931 12.303 5.1976 12.4021 5.25589 12.5013C5.29176 12.6275 5.26486 12.3165 5.25589 12.2849C5.22002 12.1497 5.15725 12.0279 5.06757 11.9288C4.90166 11.7529 4.68643 11.6492 4.4443 11.6357C4.22459 11.6267 4.02281 11.6898 3.84345 11.8161C3.75826 11.8747 3.68651 11.9423 3.61925 12.0234C3.34125 12.348 3.53406 12.073 3.74032 12.1452C3.89726 12.4247 4.0542 12.6997 4.21113 12.9792C4.35462 12.4968 4.52501 12.0279 4.73127 11.5681C4.87924 11.2345 4.82543 10.8423 4.48914 10.6439C4.1932 10.4681 3.70893 10.5447 3.56096 10.8783Z" fill="#727272"/>
<path d="M2.07136 18.8539C1.92788 19.6293 1.92788 20.3822 2.08033 21.1576C2.15656 21.5408 2.56908 21.6851 2.90986 21.631C3.10715 21.5994 3.29099 21.4867 3.43 21.3379C3.48829 21.2748 3.54209 21.1982 3.59142 21.126C3.61832 21.0855 3.64074 21.0449 3.66316 20.9998C3.70352 20.9367 3.69006 20.9412 3.61384 21.0043C3.49277 21.0043 3.37619 21.0043 3.25512 21.0043C3.28651 21.0133 3.3179 21.0223 3.34929 21.0314C3.25064 20.9728 3.15199 20.9141 3.05335 20.8555C3.00402 20.7518 2.99954 20.7564 3.04438 20.8691C3.0668 20.9232 3.08922 20.9773 3.11164 21.0314C3.18338 21.1666 3.28203 21.2748 3.40758 21.356C3.708 21.5588 3.98152 21.5453 4.30436 21.3965C4.63618 21.2478 4.71689 20.7609 4.5465 20.4723C4.3492 20.1297 3.9591 20.0801 3.62729 20.2289C3.60487 20.2379 3.57797 20.2514 3.55555 20.2604C3.73042 20.2379 3.90081 20.2154 4.07568 20.1928C4.04878 20.1838 4.02188 20.1793 3.99497 20.1703C4.09362 20.2289 4.19227 20.2875 4.29091 20.3461C4.31782 20.4363 4.31782 20.4453 4.2954 20.3777C4.27298 20.3055 4.24607 20.2379 4.21469 20.1748C4.17433 20.0981 4.12949 20.0215 4.06672 19.9584C3.87839 19.7555 3.61832 19.6608 3.3448 19.6879C3.10715 19.7104 2.89641 19.8276 2.7305 19.999C2.64979 20.0801 2.58253 20.1748 2.52424 20.274C2.51079 20.301 2.49285 20.3281 2.4794 20.3551C2.39421 20.4814 2.41663 20.4678 2.55114 20.3191C2.82466 20.4768 3.10267 20.6346 3.38067 20.7924C3.27754 20.2695 3.27306 19.733 3.3717 19.21C3.43896 18.8493 3.27306 18.4797 2.90089 18.376C2.56908 18.2903 2.13862 18.4932 2.07136 18.8539Z" fill="#727272"/>
<path d="M3.03243 28.614C3.22075 28.9927 3.4046 29.3714 3.59292 29.7501C3.75883 30.0837 4.2117 30.1603 4.51213 29.9935C4.75426 29.8583 4.92017 29.6419 4.99639 29.3714C5.03227 29.2497 5.05468 29.0964 5.04123 28.9701C5.02778 28.8259 5.09056 28.8664 5.01433 28.9341C4.91568 28.9927 4.81704 29.0513 4.71839 29.1099C4.70942 29.1144 4.70045 29.1144 4.69149 29.1189C4.57939 29.0874 4.46729 29.0558 4.35071 29.0287C4.58387 29.164 4.69597 29.3804 5.03675 29.3804C5.4403 29.3804 5.52998 29.1415 5.77212 28.9025C5.67347 28.9611 5.57482 29.0197 5.47618 29.0783C5.34614 28.9972 5.21611 28.916 5.08607 28.8304C5.13988 29.191 5.59276 29.3894 5.9156 29.3038C6.30122 29.1956 6.44022 28.8349 6.38642 28.4697C6.32364 28.064 5.94251 27.7619 5.54792 27.7213C5.08607 27.6763 4.78565 27.9287 4.56594 28.3074C4.64665 28.2263 4.72736 28.1451 4.80807 28.064C4.78565 28.082 4.75875 28.1 4.73633 28.1181C4.84842 28.0865 4.96052 28.055 5.0771 28.0279C5.05468 28.0279 5.02778 28.0279 5.00536 28.0279C5.11746 28.0595 5.22956 28.091 5.34614 28.1181C5.26543 28.073 5.05469 27.8431 4.87533 27.7935C4.61974 27.7213 4.35071 27.7754 4.13996 27.9332C3.95164 28.073 3.8216 28.2804 3.75434 28.5013C3.7095 28.641 3.75883 28.9251 3.68708 29.0242C3.76779 28.9431 3.84851 28.8619 3.92922 28.7808C3.90231 28.7943 3.87541 28.8123 3.84402 28.8259C4.14893 28.907 4.45832 28.9882 4.76323 29.0693C4.5749 28.6906 4.39106 28.3119 4.20274 27.9332C3.80815 27.1488 2.64681 27.834 3.03243 28.614Z" fill="#727272"/>
<path d="M7.1842 38.6585C7.16178 39.2401 7.76263 39.5692 8.26932 39.4114C8.51145 39.3347 8.68632 39.1634 8.8029 38.947C8.82084 38.911 8.83878 38.8704 8.85671 38.8343C8.95536 38.6765 8.85671 38.7216 8.5518 38.9786C8.4128 38.9606 8.47558 38.9606 8.57422 39.0147C8.89258 39.1905 9.30959 39.0913 9.49343 38.7712C9.67279 38.4601 9.56966 38.0228 9.2513 37.847C8.91949 37.6622 8.54284 37.554 8.17515 37.7072C7.98683 37.7884 7.82989 37.9236 7.72228 38.104C7.69089 38.1536 7.6595 38.2122 7.64156 38.2708C7.6326 38.2888 7.62363 38.3069 7.61466 38.3249C7.84783 38.0634 8.08996 38.0409 8.34554 38.2573C8.40383 38.3564 8.46213 38.4556 8.52042 38.5548C8.5249 38.5909 8.52938 38.6269 8.53387 38.663C8.54732 38.3069 8.21551 37.9687 7.86128 37.9868C7.48014 38.0003 7.19765 38.2798 7.1842 38.6585Z" fill="#727272"/>
<path d="M32.0381 5.15738C32.1188 5.56313 32.2578 5.94183 32.4327 6.31602C32.5986 6.66316 33.0515 6.70824 33.3519 6.55947C33.5223 6.47381 33.6613 6.32053 33.751 6.15372C33.7779 6.10413 33.7958 6.05003 33.8227 5.99593C33.9662 5.68486 33.8182 6.15372 33.473 6.11766C33.3609 6.0861 33.2488 6.05454 33.1322 6.02749C33.056 5.99142 33.2443 6.11315 33.2443 6.11315C33.316 6.16725 33.3653 6.1988 33.4505 6.23487C33.6254 6.31151 33.8048 6.32504 33.9931 6.29799C34.3966 6.23036 34.6343 5.96888 34.7868 5.60371C34.9258 5.26558 34.6343 4.85984 34.3159 4.76967C33.9303 4.66147 33.6299 4.90492 33.4864 5.24304C33.6433 4.95 33.8406 4.88689 34.0738 5.05369C34.0559 5.03566 34.0379 5.01763 34.0155 5.0041C33.9303 4.91844 33.7689 4.82828 33.6523 4.79672C33.4371 4.73811 33.2039 4.77418 33.0156 4.88689C32.8587 4.98156 32.7466 5.13033 32.6703 5.29263C32.6524 5.33321 32.63 5.37829 32.612 5.42338C32.5627 5.56764 32.5896 5.43239 32.6703 5.39633C32.9752 5.47748 33.2846 5.55862 33.5895 5.63977C33.464 5.37378 33.3878 5.09427 33.3295 4.80574C33.2622 4.44507 32.8318 4.2422 32.4999 4.33236C32.1367 4.42704 31.9708 4.79672 32.0381 5.15738Z" fill="#727272"/>
<path d="M33.5982 12.898C33.6834 13.3263 33.773 13.7546 33.8582 14.1829C34.0017 14.8907 34.9478 14.7599 35.1541 14.1829C35.2214 13.989 35.3379 13.8628 35.4859 13.7275C35.1317 13.6824 34.7819 13.6373 34.4277 13.5923C34.5443 13.8628 34.6653 14.1378 34.7819 14.4083C34.9164 14.7193 35.4366 14.8546 35.7011 14.6517C35.8626 14.53 35.9926 14.4218 36.0957 14.2415C36.1316 14.1783 36.1719 14.1017 36.1944 14.0296C36.2033 13.998 36.2168 13.9665 36.2347 13.9394C36.3423 13.741 36.1361 13.6779 35.6115 13.7501C35.5621 14.1107 35.9567 14.4263 36.284 14.4263C36.6876 14.4263 36.9073 14.1152 36.9566 13.7501C37.0329 13.1865 36.5082 12.6771 35.9657 12.6771C35.6922 12.6771 35.4455 12.7988 35.2617 12.9927C35.1765 13.0828 35.1182 13.182 35.0599 13.2902C35.0241 13.3623 34.8851 13.5878 35.0241 13.4841C35.329 13.5652 35.6384 13.6464 35.9433 13.7275C35.8267 13.457 35.7056 13.182 35.589 12.9115C35.4052 12.4877 34.8178 12.5148 34.5308 12.7763C34.208 13.0693 34.0017 13.421 33.8538 13.8267C34.2842 13.8267 34.7192 13.8267 35.1496 13.8267C35.0644 13.3984 34.9747 12.9701 34.8895 12.5418C34.7236 11.6853 33.4233 12.0459 33.5982 12.898Z" fill="#727272"/>
<path d="M34.7774 23.2403C34.737 23.5784 34.7774 23.9256 34.8671 24.2502C34.9792 24.6424 35.4903 24.9084 35.8535 24.6559C36.0912 24.4891 36.2347 24.3088 36.3378 24.0383C36.3647 23.9707 36.3871 23.8985 36.4095 23.8264C36.4499 23.6821 36.4095 23.876 36.293 23.894C36.1719 23.894 36.0553 23.894 35.9342 23.894C35.8221 23.8489 35.7504 23.7813 35.7325 23.6821C35.719 23.6371 35.7235 23.6506 35.7504 23.7227C35.7639 23.7633 35.7773 23.8084 35.7908 23.8489C35.867 24.0563 35.9746 24.2231 36.145 24.3629C36.5127 24.6604 36.9297 24.6109 37.2884 24.3313C37.5754 24.1059 37.5216 23.61 37.2884 23.3756C37.0059 23.0915 36.6248 23.1502 36.3378 23.3756C36.3243 23.3891 36.3064 23.3981 36.293 23.4116C36.3916 23.353 36.4902 23.2944 36.5889 23.2358C36.571 23.2403 36.553 23.2448 36.5351 23.2493C36.6562 23.2493 36.7727 23.2493 36.8938 23.2493C36.9745 23.2629 37.0911 23.5108 37.0418 23.362C37.0059 23.2448 36.9611 23.1231 36.8983 23.0194C36.71 22.7129 36.3781 22.537 36.0239 22.5731C35.71 22.6047 35.4545 22.803 35.2841 23.0645C35.2123 23.1772 35.163 23.3034 35.1226 23.4297C35.1092 23.4702 35.0823 23.5289 35.0778 23.5694C35.0733 23.628 35.0644 23.5559 35.1765 23.4793C35.5038 23.6145 35.8356 23.7498 36.1629 23.885C36.1001 23.6641 36.0912 23.4657 36.1181 23.2358C36.1584 22.8706 35.7773 22.5596 35.4455 22.5596C35.0554 22.5641 34.8222 22.8752 34.7774 23.2403Z" fill="#727272"/>
<path d="M34.4067 31.2018C34.3709 31.6436 34.4067 32.0764 34.474 32.5137C34.5547 33.0231 35.2766 33.1539 35.5995 32.8112C35.716 32.6895 35.8371 32.5678 35.9627 32.4551C36.0748 32.3559 36.1913 32.2567 36.281 32.1936C35.9537 32.0583 35.6219 31.9231 35.2946 31.7878C35.3349 31.9051 35.3349 31.7698 35.3215 31.896C35.3304 31.8014 35.2677 31.9817 35.3125 31.9051C35.1376 32.2252 35.2363 32.6444 35.5546 32.8293C35.864 33.0096 36.299 32.9104 36.4738 32.5858C36.6666 32.2297 36.7294 31.8149 36.5949 31.4272C36.4649 31.0575 35.9806 30.7464 35.6084 31.0214C35.2677 31.2739 34.9493 31.5444 34.6578 31.851C35.0345 31.9501 35.4067 32.0493 35.7833 32.1485C35.7385 31.8555 35.7385 31.5128 35.7609 31.1928C35.7878 30.8411 35.4336 30.503 35.0883 30.5165C34.6937 30.5436 34.4381 30.8231 34.4067 31.2018Z" fill="#727272"/>
<path d="M33.9753 40.0334C33.7332 40.4437 33.5494 40.8945 33.4462 41.3634C33.3655 41.7195 33.5538 42.0937 33.917 42.1974C34.2937 42.3011 34.6165 42.0712 34.7466 41.724C34.7869 41.6113 34.9214 41.3679 34.9932 41.2732C34.6748 41.2732 34.3609 41.2732 34.0426 41.2732C33.9619 41.174 33.9395 41.0658 33.9708 40.9396C33.9126 41.3003 34.065 41.6654 34.4417 41.7736C34.7645 41.8638 35.2084 41.6654 35.2712 41.3003C35.334 40.9261 35.2667 40.597 34.9977 40.3175C34.7645 40.074 34.2713 40.0334 34.0471 40.3175C33.787 40.6421 33.5987 40.9712 33.4507 41.3634C33.8812 41.4851 34.3161 41.6023 34.7466 41.724C34.8318 41.3453 34.9439 41.0478 35.1411 40.7187C35.325 40.4031 35.2129 39.9748 34.899 39.7945C34.5807 39.6051 34.1637 39.7178 33.9753 40.0334Z" fill="#727272"/>
<path d="M38.8979 42.7339C38.6199 43.099 38.4899 43.5499 38.4675 44.0052C38.454 44.2712 38.6468 44.5282 38.88 44.6228C39.1445 44.731 39.4001 44.6679 39.6153 44.4831C39.9472 44.1991 40.279 43.9105 40.6108 43.6265C40.2566 43.5814 39.9068 43.5363 39.5526 43.4913C39.5257 43.4507 39.5391 43.3921 39.5436 43.347C39.5481 43.3154 39.6198 43.2072 39.5481 43.3199C39.3553 43.631 39.4808 44.0638 39.7902 44.2441C40.1131 44.4335 40.5166 44.3118 40.7094 44.0007C40.9381 43.6355 40.9336 43.1712 40.7139 42.8015C40.4763 42.4048 39.9875 42.3822 39.6557 42.6662C39.3239 42.9503 38.9921 43.2388 38.6603 43.5228C39.0414 43.6806 39.427 43.8429 39.8082 44.0007C39.8171 43.7978 39.7723 44.0909 39.8171 43.897C39.8351 43.8294 39.853 43.7572 39.8754 43.6896C39.8395 43.7843 39.9292 43.5949 39.9292 43.5904C39.9651 43.5273 40.0055 43.4687 40.0503 43.4146C40.27 43.1216 40.0951 42.6572 39.8082 42.4904C39.4719 42.2875 39.1221 42.4408 38.8979 42.7339Z" fill="#727272"/>
<path d="M41.383 33.88C41.2888 34.3939 41.235 34.9124 41.2305 35.4398C41.2216 36.1025 42.1587 36.373 42.486 35.7825C42.6878 35.4128 42.9255 35.0927 43.2214 34.7951C42.9479 34.8312 42.6788 34.8673 42.4053 34.8988C42.3919 34.8898 42.3739 34.8763 42.3605 34.8673C42.3022 34.7681 42.2439 34.6689 42.1856 34.5697C42.1722 34.5292 42.217 34.4029 42.1722 34.5472C42.1408 34.6373 42.1228 34.7816 42.1184 34.8673C42.1094 35.0837 42.1722 35.2956 42.2977 35.4714C42.4412 35.6652 42.6788 35.796 42.9255 35.796C43.06 35.796 43.2169 35.7554 43.3335 35.6923C43.3559 35.6788 43.3739 35.6698 43.3963 35.6562C43.5039 35.5886 43.4725 35.5841 43.3021 35.6427C43.19 35.6111 43.0779 35.5796 42.9613 35.5525C42.782 35.4624 42.7685 35.3587 42.7865 35.2279C42.7371 35.5886 42.8761 35.9538 43.2573 36.062C43.5712 36.1476 44.033 35.9538 44.0868 35.5886C44.1406 35.2009 44.1227 34.8087 43.8267 34.5156C43.6788 34.3714 43.4546 34.2857 43.2483 34.2902C43.1138 34.2947 42.9569 34.3398 42.8403 34.4029C42.8089 34.421 42.6609 34.4841 42.7461 34.466C42.8672 34.466 42.9838 34.466 43.1048 34.466C43.0869 34.4615 43.0645 34.4525 43.0465 34.448C43.1452 34.5066 43.2438 34.5652 43.3425 34.6238C43.3873 34.998 43.4277 35.0927 43.468 34.9078C43.486 34.8628 43.4949 34.8177 43.5039 34.7681C43.5263 34.6644 43.5353 34.5562 43.5263 34.448C43.5084 34.1505 43.3559 33.8664 43.0824 33.7357C42.8134 33.6004 42.4905 33.6185 42.2663 33.8394C41.8942 34.2136 41.5758 34.6373 41.3202 35.0972C41.7372 35.2099 42.1542 35.3226 42.5757 35.4398C42.5802 35.0386 42.6116 34.6373 42.6833 34.2406C42.7461 33.88 42.5847 33.5103 42.2125 33.4066C41.8807 33.3164 41.4458 33.5193 41.383 33.88Z" fill="#727272"/>
<path d="M42.288 24.5702C42.0952 25.0345 42.0907 25.562 42.2387 26.0399C42.445 26.6981 43.3148 26.6665 43.5346 26.0399C43.6467 25.7153 43.8484 25.4583 44.104 25.2329C43.7229 25.0751 43.3373 24.9128 42.9561 24.755C42.9696 24.9849 42.9875 25.2149 43.001 25.4403C43.0279 25.837 43.2879 26.0714 43.6736 26.1165C43.8888 26.1436 44.0861 26.0714 44.2654 25.9542C44.3417 25.9046 44.4089 25.846 44.4672 25.7784C44.4896 25.7468 44.5165 25.7198 44.539 25.6927C44.6197 25.6071 44.5524 25.6251 44.3327 25.7468C44.2206 25.7153 44.1085 25.6837 43.9919 25.6567C43.956 25.6161 43.9157 25.5755 43.8798 25.5349C43.8484 25.4222 43.817 25.3095 43.7901 25.1923C43.7901 25.2103 43.7901 25.2284 43.7946 25.2464C43.826 25.1337 43.8574 25.021 43.8843 24.9038C43.8753 24.9173 43.8664 24.9353 43.8574 24.9489C43.4 25.6927 44.5659 26.3735 45.0187 25.6296C45.2878 25.1923 45.0636 24.6243 44.5928 24.453C44.3461 24.3628 44.095 24.3808 43.8664 24.5071C43.7722 24.5566 43.6915 24.6288 43.6153 24.7054C43.5973 24.7234 43.5839 24.746 43.5659 24.764C43.4763 24.8542 43.5121 24.8542 43.6736 24.764C43.8978 24.9894 44.122 25.2149 44.3461 25.4403C44.3327 25.2103 44.3148 24.9804 44.3013 24.755C44.261 24.1554 43.6018 23.8804 43.1534 24.2771C42.723 24.6603 42.427 25.1382 42.2387 25.6792C42.6692 25.6792 43.1041 25.6792 43.5346 25.6792C43.4494 25.4042 43.4763 25.1923 43.5839 24.9308C43.7229 24.5927 43.4314 24.187 43.1131 24.0968C42.7274 23.9886 42.427 24.232 42.288 24.5702Z" fill="#727272"/>
<path d="M41.729 12.7173C41.7648 13.096 41.8052 13.4792 41.8411 13.8579C41.8725 14.1915 42.0697 14.48 42.424 14.5206C42.7468 14.5612 43.0786 14.3673 43.1638 14.0382C43.2356 13.7497 43.3342 13.4882 43.4777 13.2312C43.0921 13.2312 42.702 13.2312 42.3164 13.2312C42.3836 13.3574 42.4509 13.4837 42.5137 13.6054C42.7603 14.0698 43.4149 14.0157 43.675 13.6054C43.6974 13.5693 43.7288 13.5378 43.7288 13.5243C43.8006 13.4611 43.7512 13.4656 43.5898 13.5378C43.5181 13.5784 43.4463 13.5874 43.3746 13.5738C43.2939 13.4927 43.2132 13.4115 43.1324 13.3304C43.128 13.3124 43.1235 13.2943 43.119 13.2763C43.3791 14.1013 44.6794 13.7497 44.4149 12.9156C44.2803 12.4918 43.9127 12.2259 43.4643 12.2394C43.0293 12.2529 42.7244 12.5775 42.5092 12.9201C42.8948 12.9201 43.2849 12.9201 43.6705 12.9201C43.6033 12.7939 43.536 12.6677 43.4732 12.5459C43.2401 12.1041 42.5495 12.1086 42.3119 12.5459C42.1191 12.9021 41.9666 13.2808 41.8635 13.6775C42.3029 13.7361 42.7423 13.7993 43.1863 13.8579C43.1504 13.4792 43.11 13.096 43.0742 12.7173C43.0383 12.3521 42.7917 12.041 42.4016 12.041C42.0653 12.041 41.6931 12.3521 41.729 12.7173Z" fill="#727272"/>
<path d="M38.3957 5.15721C38.5661 5.59001 38.7768 5.95067 39.0728 6.31134C39.4136 6.7261 40.0548 6.4556 40.1983 6.01379C40.3014 5.68919 40.3462 5.33754 40.3148 4.99942C39.8978 5.11212 39.4808 5.22483 39.0593 5.34205C39.1894 5.59451 39.3732 5.82444 39.5929 6.00477C39.8754 6.23469 40.27 6.27978 40.5435 6.00477C40.7812 5.76583 40.826 5.27893 40.5435 5.04901C40.4628 4.98589 40.3866 4.91376 40.3238 4.83712C40.2565 4.75146 40.3642 4.90474 40.3059 4.81007C40.2745 4.76048 40.2476 4.71088 40.2207 4.66129C40.0817 4.39079 39.7364 4.26907 39.4584 4.34571C39.1938 4.41784 38.9383 4.70638 38.9652 4.99942C38.9921 5.28344 38.9831 5.39615 38.8979 5.65312C39.2746 5.55394 39.6467 5.45476 40.0234 5.35557C39.9651 5.28795 39.9068 5.20229 39.8395 5.08507C39.8081 5.03097 39.7768 4.97237 39.7454 4.91827C39.7364 4.90474 39.6647 4.73343 39.6871 4.80105C39.5526 4.46293 39.2387 4.22399 38.8576 4.32768C38.5437 4.41334 38.2612 4.81458 38.3957 5.15721Z" fill="#727272"/>
<path d="M45.189 4.63449C45.2428 4.91852 45.3504 5.19352 45.4984 5.44599C45.6509 5.70296 45.9692 5.83821 46.2562 5.75706C46.5611 5.6714 46.7225 5.40541 46.7494 5.10336C46.7808 4.78777 46.8122 4.46768 46.8436 4.1521C46.5073 4.34596 46.171 4.53982 45.8302 4.73818C46.0365 4.89147 46.2427 5.04926 46.449 5.20254C46.7405 5.41894 47.2023 5.25213 47.3682 4.95909C47.57 4.61646 47.4175 4.25129 47.1261 4.03489C46.9198 3.8816 46.7136 3.72381 46.5073 3.57053C46.319 3.43077 46.0185 3.45782 45.8302 3.57053C45.6105 3.70127 45.5208 3.90865 45.4984 4.15661C45.467 4.47219 45.4356 4.79228 45.4042 5.10786C45.8213 4.99516 46.2383 4.88245 46.6597 4.76523C46.5521 4.5849 46.5252 4.49924 46.4849 4.27834C46.4176 3.91767 45.9872 3.7148 45.6553 3.80496C45.2877 3.90415 45.1262 4.27383 45.189 4.63449Z" fill="#727272"/>
<path d="M48.1758 12.7492C48.2386 13.1234 48.3283 13.484 48.4493 13.8447C48.5883 14.273 49.0367 14.4533 49.4358 14.2504C49.6824 14.1242 49.8394 13.8898 49.9021 13.6238C49.9335 13.5021 49.938 13.3713 49.947 13.2406C49.947 13.1955 49.9515 13.1504 49.9559 13.1053C49.947 13.2947 49.8214 13.4164 49.5748 13.4795C49.4627 13.448 49.3506 13.4164 49.234 13.3894C49.7631 13.6508 50.1756 13.8267 50.781 13.6914C51.624 13.5021 51.2697 12.1947 50.4223 12.3885C50.2115 12.4381 50.0905 12.3119 49.9111 12.2217C49.5972 12.0684 49.2385 12.091 48.965 12.3074C48.7587 12.4697 48.6646 12.6951 48.6287 12.9521C48.6152 13.0512 48.6108 13.1459 48.6018 13.2451C48.5928 13.3308 48.5973 13.3353 48.6063 13.2676C48.5614 13.4209 48.6108 13.3578 48.7587 13.0873C49.0861 13.2226 49.4179 13.3578 49.7452 13.4931C49.6286 13.1324 49.5389 12.7717 49.4717 12.3975C49.4089 12.0369 48.9695 11.834 48.6421 11.9242C48.2655 12.0188 48.113 12.3885 48.1758 12.7492Z" fill="#727272"/>
<path d="M49.7415 22.5325C49.6967 22.8752 49.6474 23.2178 49.6025 23.5604C49.5622 23.8625 49.6294 24.16 49.9119 24.3223C50.1451 24.4621 50.5486 24.4486 50.728 24.2186C50.8266 24.0879 50.9253 23.9797 51.0822 23.9256C50.7997 23.7092 50.5128 23.4928 50.2303 23.2719C50.2392 23.5424 50.2437 23.8129 50.2527 24.0834C50.2661 24.5342 50.6697 24.8408 51.1046 24.7371C51.3199 24.6875 51.4992 24.5793 51.6696 24.4441L51.8355 24.3133C51.8221 24.2953 51.6068 24.3088 51.5575 24.2547C51.4992 24.1555 51.4409 24.0563 51.3826 23.9572C51.3916 23.9797 51.3961 24.0022 51.4051 24.0248C51.6876 24.8408 52.9879 24.4891 52.7009 23.6641C52.544 23.2178 52.1853 22.9653 51.71 22.9789C51.5172 22.9834 51.3154 23.0465 51.1495 23.1457C51.015 23.2268 50.8894 23.3936 50.737 23.4297C51.0194 23.6461 51.3064 23.8625 51.5889 24.0834C51.5799 23.8129 51.5755 23.5424 51.5665 23.2719C51.5575 22.8571 51.1405 22.4739 50.7145 22.6182C50.3424 22.7489 50.0106 22.9473 49.7684 23.2629C50.1451 23.4838 50.5172 23.7002 50.8939 23.9211C50.9387 23.5785 50.9881 23.2358 51.0329 22.8932C51.0822 22.5325 50.9477 22.1674 50.5621 22.0592C50.2572 21.9735 49.7908 22.1674 49.7415 22.5325Z" fill="#727272"/>
<path d="M47.8078 33.7307C47.7136 34.1139 47.6194 34.4971 47.5298 34.8803C47.4446 35.2319 47.6374 35.6196 48.0006 35.7143C48.3234 35.8 48.6328 35.7369 48.8974 35.525C49.1081 35.3536 49.1843 35.0877 49.3771 34.9208C49.2785 34.9795 49.1798 35.0381 49.0812 35.0967C49.1126 35.0831 49.144 35.0696 49.1798 35.0561C49.0588 35.0561 48.9422 35.0561 48.8211 35.0561C48.8525 35.0606 48.8839 35.0696 48.9198 35.0741C48.7853 34.9704 48.6507 34.8667 48.5162 34.7631C48.5072 34.709 48.5117 34.7225 48.5252 34.8127C48.5566 34.8893 48.588 34.9659 48.6238 35.0426C48.7135 35.1913 48.8525 35.295 49.005 35.3627C49.1664 35.4348 49.3457 35.4438 49.5206 35.4077C49.5789 35.4032 49.6372 35.3852 49.691 35.3627C49.9556 35.277 49.9018 35.25 49.5296 35.286C49.4489 35.2049 49.3682 35.1237 49.2875 35.0426C49.2964 35.0561 49.3099 35.0741 49.3188 35.0877C49.2875 34.9749 49.2561 34.8622 49.2292 34.745C49.2292 34.7631 49.2292 34.7856 49.2247 34.8036C49.1843 35.6737 50.5295 35.6737 50.5699 34.8036C50.5878 34.434 50.3367 34.1229 49.9914 34.0147C49.83 33.9651 49.6507 33.9606 49.4847 34.0012C49.4265 34.0147 49.1978 34.0598 49.265 34.0688C49.3771 34.1003 49.4892 34.1319 49.6058 34.1589C49.5834 34.1454 49.5655 34.1274 49.543 34.1139C49.6237 34.195 49.7045 34.2762 49.7852 34.3573C49.7538 34.2942 49.682 34.0553 49.5699 33.938C49.3906 33.7577 49.0633 33.6766 48.8211 33.7442C48.6238 33.7983 48.4534 33.9155 48.3189 34.0643C48.2472 34.1454 48.1844 34.2356 48.1306 34.3303C48.1127 34.3618 48.0992 34.3934 48.0813 34.4204C47.9557 34.5917 48.0499 34.5872 48.3638 34.4024C48.5207 34.6819 48.6776 34.9569 48.8346 35.2364C48.9287 34.8532 49.0229 34.47 49.1126 34.0868C49.3099 33.2438 48.014 32.8831 47.8078 33.7307Z" fill="#727272"/>
<path d="M46.382 41.8639C46.4807 41.9406 46.5793 42.0172 46.678 42.0938C46.9649 42.3193 47.4313 42.1389 47.5972 41.8504C47.7989 41.5033 47.6465 41.1471 47.355 40.9262C47.2564 40.8495 47.1577 40.7729 47.0591 40.6963C46.7721 40.4708 46.3058 40.6512 46.1399 40.9397C45.9381 41.2869 46.095 41.6385 46.382 41.8639Z" fill="#727272"/>
</g>
<defs>
<clipPath id="clip0_42070_8275">
<rect width="55" height="48" fill="white"/>
</clipPath>
</defs>
</svg>
