<svg width="83" height="40" viewBox="0 0 83 40" fill="none" xmlns="http://www.w3.org/2000/svg">
<path d="M30.3864 2.61662C28.0451 8.63117 26.3976 14.9165 25.8573 21.3711C25.3971 26.8881 25.5372 32.8383 28.5587 37.6513C28.9056 38.203 29.7594 37.675 29.4125 37.1199C26.3809 32.2934 26.3876 26.2382 26.9145 20.7246C27.5015 14.5814 29.129 8.59394 31.3569 2.86708C31.5903 2.26123 30.6198 2.01753 30.3864 2.61662Z" fill="#727272"/>
<path d="M60.7875 1.68548C66.1136 5.74708 66.1203 13.1933 66.6939 19.3061C66.9841 22.3895 67.3843 25.4831 67.5244 28.58C67.6544 31.4096 67.421 34.4152 65.2132 36.4189C64.7329 36.8556 65.4566 37.5562 65.9335 37.1229C67.8779 35.3595 68.4782 32.8346 68.5449 30.2724C68.6416 26.6237 68.0313 22.9141 67.6911 19.2891C67.0942 12.9192 67.0208 5.18184 61.4779 0.954387C60.971 0.565151 60.2739 1.29285 60.7875 1.68548Z" fill="#727272"/>
<path d="M28.7574 37.8539C31.5823 38.8862 34.4704 39.1435 37.442 39.3973C40.7304 39.6783 44.0488 40.1013 47.3538 39.9829C50.7089 39.8644 54.074 39.3804 57.4091 39.0149C60.3273 38.6933 63.2221 38.2872 65.9435 37.1093C66.5272 36.8554 66.2504 35.8773 65.6567 36.1345C62.8352 37.3564 59.8403 37.7355 56.8154 38.0604C53.6671 38.3988 50.4988 38.8558 47.3338 38.9675C44.2322 39.0792 41.1239 38.6967 38.0356 38.4361C34.9574 38.1721 31.9358 37.9419 29.0042 36.8724C28.3973 36.6456 28.1571 37.6339 28.7574 37.8539Z" fill="#727272"/>
<path d="M30.6263 3.18489C32.9542 4.14952 35.3321 5.00245 37.8434 5.30369C40.4548 5.61508 43.1162 5.1683 45.7442 5.236C47.2017 5.27323 48.5123 5.47292 49.9831 5.25969C51.2504 5.07353 52.5178 4.8163 53.7484 4.46091C56.2997 3.72305 58.771 2.69411 61.2757 1.80733C61.8793 1.59409 61.5992 0.619309 60.9888 0.832543C56.0863 2.56888 51.4906 4.59629 46.1978 4.24767C43.9966 4.10213 41.8055 4.43044 39.611 4.41014C36.6561 4.37967 33.8147 3.41843 31.1066 2.2981C30.5229 2.05441 30.0294 2.93781 30.6263 3.18489Z" fill="#727272"/>
<path d="M0.663844 6.24129C6.26677 7.13485 11.4795 9.82566 15.3849 14.0193C19.1635 18.0775 21.2879 23.4252 25.4101 27.1924C25.887 27.629 26.584 26.8979 26.1038 26.4613C21.7348 22.4674 19.5504 16.6898 15.3482 12.5368C11.4128 8.64779 6.32346 6.11945 0.910639 5.25636C0.276975 5.15482 0.0268443 6.13975 0.663844 6.24129Z" fill="#727272"/>
<path d="M1.5371 4.42362C6.62309 3.24575 12.0292 3.94638 16.5983 6.54242C20.2435 8.61384 23.2351 11.8868 27.5874 12.3336C28.2277 12.3979 28.201 11.3825 27.5674 11.3182C22.6848 10.8173 19.163 6.35288 14.7607 4.51839C10.4684 2.73128 5.76264 2.40635 1.25362 3.44883C0.623286 3.59437 0.910103 4.56916 1.5371 4.42362Z" fill="#727272"/>
<path d="M0.723598 3.74329C0.340064 4.27806 0.0932688 4.90423 0.0065569 5.55747C-0.0301289 5.83163 0.0865987 6.09901 0.37008 6.17348C0.60687 6.23779 0.940378 6.07871 0.977064 5.80455C1.05377 5.22239 1.25721 4.7113 1.59739 4.23406C1.75747 4.01068 1.6174 3.66882 1.40395 3.54359C1.14715 3.39805 0.880347 3.52328 0.723598 3.74329Z" fill="#727272"/>
<path d="M64.8108 4.67082C66.8785 0.653221 73.4486 0.135367 77.1572 1.97663C81.176 3.97358 83.0303 8.81027 81.3828 13.0411C79.9487 16.727 76.2634 18.531 73.2319 20.6566C71.9545 21.5535 70.5338 22.5622 69.65 23.8856C68.7262 25.2699 68.8462 27.0299 67.9324 28.4109C67.5722 28.9558 68.4494 29.4432 68.8062 28.905C69.3832 28.0352 69.5499 27.1078 69.8067 26.1127C70.1703 24.7216 70.8973 23.828 71.9412 22.9176C73.7388 21.3505 75.8466 20.2166 77.7609 18.812C81.1493 16.3242 83.5272 12.7906 82.8969 8.36349C82.3199 4.33235 79.1249 0.998457 75.1795 0.263984C71.2041 -0.477258 65.9647 0.236907 63.9337 4.18004C63.6369 4.75544 64.5106 5.2496 64.8108 4.67082Z" fill="#727272"/>
<path d="M65.8232 7.2261C67.2073 4.4236 70.3589 3.69928 73.2204 3.92266C75.1281 4.07159 76.3053 4.83314 77.3025 6.49501C78.4064 8.3295 78.3531 9.88306 77.7294 11.8394C76.7489 14.9059 74.9813 16.3275 72.2632 17.766C70.4823 18.7069 67.7642 19.9389 67.0539 22.0205C66.8437 22.6399 67.8143 22.8836 68.0244 22.2709C68.6714 20.3755 71.8464 19.1435 73.4805 18.2669C74.8979 17.5087 76.2253 16.6727 77.1825 15.3358C78.6966 13.2237 79.9406 9.77476 78.8433 7.27349C77.5026 4.21375 75.4516 2.85649 72.1765 2.88019C69.2617 2.9005 66.3235 3.95651 64.9528 6.73194C64.6626 7.3141 65.5364 7.80826 65.8232 7.2261Z" fill="#727272"/>
<path d="M47.3086 14.5711C44.367 15.0145 41.8824 17.2348 41.5856 20.3386C41.3021 23.2968 43.2698 27.1485 46.6115 26.9218C49.6598 26.7153 52.3679 23.7165 52.648 20.7177C52.9582 17.4176 50.5203 14.5406 47.2085 14.6862C46.5649 14.7133 46.5849 15.7287 47.2285 15.7016C50.1334 15.573 52.1344 18.2672 51.5908 21.1035C51.1506 23.3983 48.9694 25.7134 46.5915 25.9097C43.67 26.1501 42.1792 22.3965 42.6428 19.9595C43.0864 17.6241 45.0574 15.9317 47.3286 15.5899C47.9556 15.4917 47.9456 14.473 47.3086 14.5711Z" fill="#727272"/>
<path d="M47.8825 15.0145C47.7058 12.8619 51.0375 9.58889 52.705 12.08C53.222 12.8517 53.7222 14.2225 53.5088 15.1736C53.2787 16.1924 52.2948 16.9539 51.5411 17.5801C51.0442 17.993 51.7712 18.6936 52.2615 18.2841C53.4488 17.2992 54.6694 16.1179 54.556 14.429C54.4626 13.048 53.7089 11.2271 52.5216 10.4689C49.9869 8.84765 46.6786 12.5606 46.882 15.0382C46.9354 15.6847 47.9359 15.6678 47.8825 15.0145Z" fill="#727272"/>
<path d="M52.5269 18.5104C53.7809 17.7556 57.0259 17.9553 56.6891 20.135C56.3689 22.2132 53.7175 22.2978 52.1467 22.3181C51.503 22.3249 51.523 23.3403 52.1667 23.3335C54.3712 23.3065 58.2265 22.6025 57.6763 19.4378C57.2427 16.9534 53.7875 16.5676 52.0033 17.6439C51.4497 17.979 51.9699 18.8455 52.5269 18.5104Z" fill="#727272"/>
<path d="M51.5198 23.5196C53.2741 24.3048 55.2484 26.6369 53.5809 28.5188C51.6299 30.7188 48.8084 28.5425 48.088 26.4203C47.8779 25.8043 46.9174 26.0886 47.1275 26.7113C48.0613 29.4529 51.4264 31.8222 54.0211 29.4969C56.5424 27.2394 54.538 23.7667 52.0067 22.6294C51.4231 22.3688 50.9328 23.2556 51.5198 23.5196Z" fill="#727272"/>
<path d="M46.6472 26.6748C46.7372 28.3807 46.267 30.9192 44.0058 30.6146C42.9786 30.4758 42.1882 29.5383 42.2348 28.4755C42.2749 27.521 42.9385 26.4074 43.3021 25.5342C43.5489 24.9385 42.6784 24.4376 42.4283 25.04C41.898 26.3194 40.9775 27.8121 41.3177 29.2573C41.5945 30.4284 42.505 31.3592 43.6723 31.5928C46.6505 32.1918 47.7744 29.0746 47.6477 26.6511C47.6143 26.0013 46.6138 26.0182 46.6472 26.6748Z" fill="#727272"/>
<path d="M43.1656 24.2715C41.3013 25.0534 38.4232 24.8537 37.7728 22.481C37.4894 21.4385 37.8062 20.2065 38.77 19.6413C39.7072 19.093 40.9178 19.2385 41.9383 19.3637C42.5687 19.4416 42.8221 18.4567 42.1851 18.3788C40.7711 18.2062 39.1669 18.0539 37.9496 18.9745C36.9391 19.7394 36.5288 21.0798 36.7223 22.3152C37.2225 25.5069 40.9011 26.3091 43.4491 25.2429C44.0428 24.9992 43.7626 24.021 43.1656 24.2715Z" fill="#727272"/>
<path d="M42.5462 18.4939C40.862 17.58 39.9815 14.2224 41.4589 12.7704C43.3999 10.8648 45.7845 13.5658 46.9585 15.028C47.3653 15.5323 48.0524 14.7978 47.6522 14.2969C46.118 12.3879 42.7996 9.46697 40.5318 12.2187C38.8642 14.2461 39.8614 18.1893 42.0592 19.384C42.6262 19.6921 43.1165 18.8053 42.5462 18.4939Z" fill="#727272"/>
<path d="M44.153 25.9566C43.3626 26.7283 42.849 28.8167 44.0629 29.4496C45.517 30.2112 46.1607 27.6219 46.3541 26.6877C46.4408 26.2613 45.7938 26.0954 45.7071 26.5219C45.6204 26.945 45.5104 27.3613 45.3569 27.7674C45.2802 27.9671 45.1969 28.1668 45.0968 28.3564C44.9434 28.6508 44.8533 28.8404 44.4998 28.7998C43.546 28.6813 44.1997 26.8502 44.6366 26.4271C44.9434 26.1225 44.4631 25.6554 44.153 25.9566Z" fill="#727272"/>
<path d="M48.4514 26.0043C48.2813 26.9791 49.3685 27.744 50.1456 28.0926C50.9327 28.4446 52.0299 28.5631 52.7669 28.0114C53.4706 27.4834 53.3606 26.5255 53.0571 25.7944C52.6435 24.7993 51.7931 24.1292 50.8093 23.7772C50.4024 23.6316 50.2423 24.2916 50.6458 24.4338C51.2395 24.647 51.7731 25.0058 52.15 25.527C52.28 25.7098 52.3801 25.9027 52.4635 26.1126C52.6569 26.6068 52.6869 26.8301 52.3434 27.26C52.0499 27.6255 51.8965 27.7102 51.4496 27.7135C51.1695 27.7135 50.8793 27.656 50.6158 27.5612C50.2123 27.4157 48.995 26.7726 49.0984 26.1769C49.1717 25.7437 48.5281 25.5744 48.4514 26.0043Z" fill="#727272"/>
<path d="M52.3208 21.6248C53.1579 21.8381 53.9917 21.4725 54.6954 21.0224C55.209 20.694 55.886 20.095 55.8259 19.4011C55.7759 18.8223 55.209 18.5482 54.702 18.4872C53.8282 18.3789 52.9711 18.7614 52.2608 19.242C51.9039 19.4823 52.2508 20.0645 52.6076 19.8208C52.9778 19.567 53.3713 19.3436 53.8082 19.2319C54.2118 19.1269 55.3857 18.9577 55.0289 19.8073C54.7154 20.562 53.1946 21.1476 52.4842 20.9682C52.0673 20.8633 51.9039 21.5199 52.3208 21.6248Z" fill="#727272"/>
<path d="M49.2097 15.3059C49.1564 14.7914 49.2631 14.2803 49.63 13.9012C49.8968 13.6203 50.5438 13.248 50.924 13.4646C51.2608 13.6575 51.2375 14.4699 51.2375 14.8456C51.2341 15.3837 51.1207 15.8948 50.944 16.3991C50.8006 16.8087 51.4476 16.9711 51.591 16.565C51.8778 15.7459 51.9779 14.8862 51.8411 14.0231C51.7477 13.4308 51.6477 12.8418 50.9907 12.7538C49.5366 12.5541 48.406 13.9249 48.5494 15.3228C48.5861 15.7493 49.2531 15.7391 49.2097 15.3059Z" fill="#727272"/>
<path d="M43.016 17.5695C42.4991 16.9095 42.0555 15.7113 42.2289 14.8618C42.3323 14.3473 42.4524 14.1984 42.9793 14.1442C43.5063 14.0901 43.6363 14.2491 44.0165 14.5605C44.4034 14.8753 44.7803 15.2002 45.1638 15.5184C45.494 15.7925 45.9576 15.3085 45.624 15.031C44.6836 14.2458 43.1728 12.435 41.9755 13.8125C41.0483 14.8821 41.672 16.9399 42.4457 17.9249C42.7092 18.26 43.2828 17.9113 43.016 17.5695Z" fill="#727272"/>
<path d="M41.8182 20.2062C40.5175 19.6782 38.82 20.8527 39.0201 22.3352C39.2068 23.7398 41.438 24.2611 42.4419 23.469C42.7754 23.205 42.4319 22.6229 42.095 22.8903C41.5481 23.3235 40.1874 23.2084 39.7872 22.562C39.2002 21.6244 40.6309 20.4432 41.4981 20.7985C41.8883 20.9576 42.2151 20.3687 41.8182 20.2062Z" fill="#727272"/>
</svg>
